<svg xmlns="http://www.w3.org/2000/svg" width="106.733" height="106.733">
  <defs>
    <clipPath id="a" clipPathUnits="userSpaceOnUse">
      <path d="M-332.097 296.101h841.89v-595.28h-841.89Z"/>
    </clipPath>
    <clipPath id="b" clipPathUnits="userSpaceOnUse">
      <path d="M-322.622 318.88h841.89V-276.4h-841.89Z"/>
    </clipPath>
    <clipPath id="c" clipPathUnits="userSpaceOnUse">
      <path d="M-313.179 287.821h841.89v-595.28h-841.89Z"/>
    </clipPath>
    <clipPath id="d" clipPathUnits="userSpaceOnUse">
      <path d="M-298.788 262.069h841.89v-595.28h-841.89Z"/>
    </clipPath>
    <clipPath id="e" clipPathUnits="userSpaceOnUse">
      <path d="M-287.146 263.447h841.89v-595.28h-841.89Z"/>
    </clipPath>
    <clipPath id="f" clipPathUnits="userSpaceOnUse">
      <path d="M-293.11 262.456h841.89v-595.28h-841.89Z"/>
    </clipPath>
    <clipPath id="g" clipPathUnits="userSpaceOnUse">
      <path d="M-279.11 264.499h841.89v-595.28h-841.89Z"/>
    </clipPath>
    <clipPath id="h" clipPathUnits="userSpaceOnUse">
      <path d="M-279.11 266.938h841.89v-595.28h-841.89Z"/>
    </clipPath>
    <clipPath id="i" clipPathUnits="userSpaceOnUse">
      <path d="M-279.11 269.373h841.89v-595.28h-841.89Z"/>
    </clipPath>
    <clipPath id="j" clipPathUnits="userSpaceOnUse">
      <path d="M-279.11 271.807h841.89v-595.28h-841.89Z"/>
    </clipPath>
    <clipPath id="k" clipPathUnits="userSpaceOnUse">
      <path d="M-296.056 264.499h841.89v-595.28h-841.89Z"/>
    </clipPath>
    <clipPath id="l" clipPathUnits="userSpaceOnUse">
      <path d="M-296.056 266.938h841.89v-595.28h-841.89Z"/>
    </clipPath>
    <clipPath id="m" clipPathUnits="userSpaceOnUse">
      <path d="M-296.056 269.373h841.89v-595.28h-841.89Z"/>
    </clipPath>
    <clipPath id="n" clipPathUnits="userSpaceOnUse">
      <path d="M-296.056 271.807h841.89v-595.28h-841.89Z"/>
    </clipPath>
    <clipPath id="o" clipPathUnits="userSpaceOnUse">
      <path d="M-327.81 293.279h841.89v-595.28h-841.89Z"/>
    </clipPath>
    <clipPath id="p" clipPathUnits="userSpaceOnUse">
      <path d="M-295.679 291.562h841.89v-595.28h-841.89Z"/>
    </clipPath>
    <clipPath id="q" clipPathUnits="userSpaceOnUse">
      <path d="M-311.383 312.372h841.89v-595.28h-841.89Z"/>
    </clipPath>
    <clipPath id="r" clipPathUnits="userSpaceOnUse">
      <path d="M-288.6 305.023h841.89v-595.28H-288.6Z"/>
    </clipPath>
    <clipPath id="s" clipPathUnits="userSpaceOnUse">
      <path d="M-286.138 301.739h841.89v-595.28h-841.89Z"/>
    </clipPath>
    <clipPath id="t" clipPathUnits="userSpaceOnUse">
      <path d="M-327.26 293.425h841.89v-595.28h-841.89Z"/>
    </clipPath>
    <clipPath id="u" clipPathUnits="userSpaceOnUse">
      <path d="M-315.878 270.739h841.89v-595.28h-841.89Z"/>
    </clipPath>
    <clipPath id="v" clipPathUnits="userSpaceOnUse">
      <path d="M-322.686 267.499h841.89v-595.28h-841.89Z"/>
    </clipPath>
    <clipPath id="w" clipPathUnits="userSpaceOnUse">
      <path d="M-317.165 273.998h841.89v-595.28h-841.89Z"/>
    </clipPath>
    <clipPath id="x" clipPathUnits="userSpaceOnUse">
      <path d="M-315.878 261.257h841.89v-595.28h-841.89Z"/>
    </clipPath>
    <clipPath id="y" clipPathUnits="userSpaceOnUse">
      <path d="M-319.506 267.506h841.89v-595.28h-841.89Z"/>
    </clipPath>
    <clipPath id="z" clipPathUnits="userSpaceOnUse">
      <path d="M-312.245 279.614h841.89v-595.28h-841.89Z"/>
    </clipPath>
    <clipPath id="A" clipPathUnits="userSpaceOnUse">
      <path d="M-311.398 269.449h841.89v-595.28h-841.89Z"/>
    </clipPath>
    <clipPath id="B" clipPathUnits="userSpaceOnUse">
      <path d="M-319.506 279.614h841.89v-595.28h-841.89Z"/>
    </clipPath>
  </defs>
  <path d="M0 0v38.46h-62.647V-.324c0-1.809.385-11.426 8.118-23.612 8.442-13.323 22.375-17.431 22.965-17.603l.216-.051.213.051c.578.172 14.559 4.28 23.021 17.603C.301-10.659.016-.428 0 0" clip-path="url(#a)" style="fill:#004282;fill-opacity:1;fill-rule:nonzero;stroke:none" transform="matrix(1.33333 0 0 -1.33333 95.128 51.28)"/>
  <path d="M0 0c-7.598-11.98-20.186-16.34-21.951-16.908C-23.687-16.34-36.243-11.98-43.83 0c-7.612 11.976-7.886 21.591-7.886 22.902v13.767H7.883v-13.75C7.883 21.581 7.603 11.976 0 0" clip-path="url(#b)" style="fill:#fff;fill-opacity:1;fill-rule:nonzero;stroke:none" transform="matrix(1.33333 0 0 -1.33333 82.495 81.651)"/>
  <path d="M0 0h.023Z" clip-path="url(#c)" style="fill:#6f3d24;fill-opacity:1;fill-rule:nonzero;stroke:none" transform="matrix(1.33333 0 0 -1.33333 69.904 40.24)"/>
  <path d="M0 0c-.109.016-2.655.468-5.705.468-2.402 0-4.584-.722-5.547-1.098-.953.376-3.135 1.098-5.543 1.098-3.043 0-5.592-.452-5.703-.468l-.34-.062v-16.215l.5.107c.018.007 2.136.458 5.24.458 2.33 0 4.757-.651 5.707-.986l.139-.056.144.056c.959.335 3.372.986 5.706.986 3.119 0 5.226-.451 5.238-.458l.513-.107V-.065z" clip-path="url(#d)" style="fill:#f5821f;fill-opacity:1;fill-rule:nonzero;stroke:none" transform="matrix(1.33333 0 0 -1.33333 50.717 5.904)"/>
  <path d="M0 0c-.966.362-2.955.992-5.135.992-2.355 0-4.429-.28-5.205-.399v-12.261c.807.137 2.559.383 4.907.383 2.092 0 4.197-.486 5.433-.864z" clip-path="url(#e)" style="fill:#fff;fill-opacity:1;fill-rule:nonzero;stroke:none" transform="matrix(1.33333 0 0 -1.33333 35.193 7.74)"/>
  <path d="M0 0c-2.205 0-4.221-.649-5.172-1.004v-12.143c1.228.379 3.352.872 5.469.872 2.346 0 4.101-.246 4.913-.386V-.398C4.432-.281 2.354 0 0 0" clip-path="url(#f)" style="fill:#fff;fill-opacity:1;fill-rule:nonzero;stroke:none" transform="matrix(1.33333 0 0 -1.33333 43.146 6.42)"/>
  <path d="M0 0c-.297-.083-.466-.363-.379-.619.098-.265.418-.404.724-.327.011.002 1.566.274 2.891.274 1.203 0 2.557-.54 2.57-.551.296-.091.624.039.733.292.107.253-.041.538-.334.638-.064.02-1.556.612-2.969.612C1.732.319.069.016 0 0" clip-path="url(#g)" style="fill:#004282;fill-opacity:1;fill-rule:nonzero;stroke:none" transform="matrix(1.33333 0 0 -1.33333 24.48 9.143)"/>
  <path d="M0 0c-.297-.078-.466-.358-.379-.616.098-.262.418-.405.724-.329.011.006 1.566.283 2.891.283 1.203 0 2.557-.543 2.57-.554.296-.098.624.042.733.29.107.256-.041.535-.334.635-.064.024-1.556.614-2.969.614C1.732.323.069.023 0 0" clip-path="url(#h)" style="fill:#004282;fill-opacity:1;fill-rule:nonzero;stroke:none" transform="matrix(1.33333 0 0 -1.33333 24.48 12.396)"/>
  <path d="M0 0c-.297-.076-.466-.361-.379-.614.098-.26.418-.411.724-.335.011.009 1.566.282 2.891.282 1.203 0 2.557-.54 2.57-.548.296-.094.624.028.733.286.107.257-.041.538-.334.636-.064.021-1.556.62-2.969.62C1.732.327.069.023 0 0" clip-path="url(#i)" style="fill:#004282;fill-opacity:1;fill-rule:nonzero;stroke:none" transform="matrix(1.33333 0 0 -1.33333 24.48 15.642)"/>
  <path d="M0 0c-.297-.08-.466-.357-.379-.613.098-.263.418-.412.724-.329.011 0 1.566.283 2.891.283 1.203 0 2.557-.554 2.57-.554.296-.099.624.028.733.283.107.262-.041.543-.334.638-.064.024-1.556.615-2.969.615C1.732.323.069.012 0 0" clip-path="url(#j)" style="fill:#004282;fill-opacity:1;fill-rule:nonzero;stroke:none" transform="matrix(1.33333 0 0 -1.33333 24.48 18.888)"/>
  <path d="M0 0c.301-.083.469-.363.379-.619-.103-.265-.415-.404-.707-.327-.022.002-1.576.274-2.908.274-1.204 0-2.555-.54-2.563-.551-.301-.091-.631.039-.738.292-.111.253.037.538.327.638.07.02 1.563.612 2.974.612C-1.73.319-.069.016 0 0" clip-path="url(#k)" style="fill:#004282;fill-opacity:1;fill-rule:nonzero;stroke:none" transform="matrix(1.33333 0 0 -1.33333 47.074 9.143)"/>
  <path d="M0 0c.301-.078.469-.358.379-.616-.103-.262-.415-.405-.707-.329-.022.006-1.576.283-2.908.283-1.204 0-2.555-.543-2.563-.554-.301-.098-.631.042-.738.29-.111.256.037.535.327.635.07.024 1.563.614 2.974.614C-1.73.323-.069.023 0 0" clip-path="url(#l)" style="fill:#004282;fill-opacity:1;fill-rule:nonzero;stroke:none" transform="matrix(1.33333 0 0 -1.33333 47.074 12.396)"/>
  <path d="M0 0c.301-.076.469-.361.379-.614-.103-.26-.415-.411-.707-.335-.022.009-1.576.282-2.908.282-1.204 0-2.555-.54-2.563-.548-.301-.094-.631.028-.738.286-.111.257.037.538.327.636.07.021 1.563.62 2.974.62C-1.73.327-.069.023 0 0" clip-path="url(#m)" style="fill:#004282;fill-opacity:1;fill-rule:nonzero;stroke:none" transform="matrix(1.33333 0 0 -1.33333 47.074 15.642)"/>
  <path d="M0 0c.301-.08.469-.357.379-.613-.103-.263-.415-.412-.707-.329-.022 0-1.576.283-2.908.283-1.204 0-2.555-.554-2.563-.554-.301-.099-.631.028-.738.283-.111.262.037.543.327.638.07.024 1.563.615 2.974.615C-1.73.323-.069.012 0 0" clip-path="url(#n)" style="fill:#004282;fill-opacity:1;fill-rule:nonzero;stroke:none" transform="matrix(1.33333 0 0 -1.33333 47.074 18.888)"/>
  <path d="M0 0c-.311 1.116-.879 1.615-1.63 2.011-2.08 1.105-4.79.336-7.166-.474-1.799-.615-2.341-.798-4.376-1.108-1.531-.232-6.678-.905-8.297.439-.232.187-.471.616-.49.887-.048.567.207 1.228.397 1.44.416.46 1.373.677 2.93.677l3.975-.07c.253-.327.891-.838 2.504-1.175 2.577-.561 5.402.334 5.402.334s-.466.095-.859.392c-.345.251-.308.634-.308.634s.563-.266 1.386-.246c1.026.032 1.508.522 2.465.761.959.251 2.03.047 2.03.047s-.973 1.033-1.928 1.22c-.969.176-2.168-.068-2.168-.068s.301.135.67.464c.277.258.338.691.338.691s-1.146-.445-2.315-.379c-1.165.063-1.082.478-3.341.537-1.709.048-3.129-.97-3.716-1.46-1.831.115-3.273.181-4.128.181-2.332 0-3.668-.38-4.5-1.279-.678-.749-.988-1.707-.882-2.867.077-.911.484-1.668 1.2-2.26 2.176-1.791 8.01-1.244 10.078-.885 2.305.41 2.995.588 4.338 1.033l.078.026c1.034.351 4.194 1.4 5.51.702.268-.14.448-.413.567-.815.043-.178.076-.347.076-.499 0-.283-.084-.503-.261-.712-1.2-1.478-5.727-1.72-7.695-1.826-.214.047-1.534.343-3.275.348-1.168.012-2.157-.061-3.183-.145-1.893-.142-3.838-.286-7.088.084-1.508.172-2.92.45-3.985.761-.048.409-.235.791-.638 1.233.779-.246 1.789.61 2.072 1.041 0 .037-1.379.406-1.462 1.304-.005.021.984-.083 1.382 1.258-.975.529-.67.719-1.141 1.384-.404.585-1.009.87-1.75.853.297.041.322 0 .661.163.413.217.716.805 1.133.775-.846 1.332-3.133 1.502-4.088 1.228.252.295.617.639.624 1.052-1.261-.35-2.498.306-3.763.07-1.063-.197-1.662-.622-1.983-1.631h-.064c-.33 1.009-.926 1.434-1.98 1.631-1.272.236-2.518-.42-3.782-.07.006-.413.389-.757.625-1.052-.942.274-3.224.104-4.084-1.228.429.03.718-.558 1.141-.775.379-.186.447-.147.652-.163-.736.017-1.33-.268-1.747-.853-.472-.665-.16-.855-1.144-1.384C-46.58.896-45.592 1-45.592.979c-.086-.898-1.465-1.267-1.469-1.304.286-.431 1.299-1.287 2.073-1.041-.637-.704-.745-1.252-.596-1.972-.996.751-1.966 1.579-2.489 2.269-.131.182-.521 1.466-.775 2.309l-.214.692-.097.374c-.317 1.137-.605 2.096-1.136 2.224-.279.067-.539.087-.769.067-.178.277-.434.574-.725.668-.6.181-.893.047-.893.047s.489-.345.649-.704c.053-.102.072-.183.095-.26a3.594 3.594 0 0 1-.292-.2l-.044-.034c-.062-.052-.15-.123-.237-.204a.56.56 0 0 1-.122.036c-.627.079-.892-.108-.892-.108s.331-.162.587-.395a2.01 2.01 0 0 1-.394-1.168c0-.047.008-.097.008-.145-.592-.048-.817-.263-.817-.263s.579-.159.857-.427c.032-.04.059-.068.09-.099-.031-.03-.049-.052-.049-.052a1.144 1.144 0 0 1-.177-.627c0-.522.291-1.087.701-1.45 0 0 1.064-.891 1.168-.971.428-.946.887-1.776 1.197-2.132.092-.118.75-1.251 1.442-2.441.099-.155.197-.316.282-.484.157-.734.32-1.644.396-2.356.139-1.29.007-2.732.007-2.732s.83.05 1.219.583c0 .012.307-.888.268-1.907-.039-.755-.243-1.805-.243-1.805s.805.43 1.42.975c.307.279.628.719.814 1.019.679-.434 2.601.243 3.559.637.19-.379.452-.804.795-1.277.145.575.772.859 1.049 1.322h.264c.029-.634-.151-1.221.447-2.399.172-.334.996-1.57 1.602-2.209-.229-1.06-.664-3.023-1.111-4.611-.512-1.826-.926-2.729-1.168-3.156-.682-.04-1.943-.081-2.336-.06-.957.038-1.667-.152-2.102-.6-.038-.029-.057-.07-.084-.095-.336-.05-.717-.157-.93-.378-.413-.471-.424-.783-.424-.783s.532.29.918.29h.085v-.086c0-.09.056-.241.147-.423-.067-.051-.116-.104-.173-.155-.388-.501-.359-.821-.359-.821s.486.32.891.354c.114-.196.247-.395.396-.59-.013-.019-.032-.039-.052-.066-.336-.523-.296-.839-.296-.839s.389.302.752.392c.122-.127.254-.261.365-.368.578-.504 2.004-.17 3.809.305l1.124.272c.787.15 1.282.463 1.651 1.063.088.137.16.371.282.734l.111.322c.25.7.443 1.153.939 1.939.023.031.498.81 1.162 1.882.586.492 1.296 1.055 1.807 1.4.775.525 2.339 1.321 2.339 1.321s-.423.684-1.04.769c-.014 0 .791.815 1.457 1.103.76.333 1.732.512 1.732.512s-.345.729-.902 1.09c.236.069.445.199.705.368 1.311.859 2.273.834 3.2.57.025.6-.118.963-.63 1.313.437.174.876.339 1.352.444.295-.51.639-1.076.796-1.299.675-.961 1.696-2.283 2.521-3.119.015-.012.033-.054.033-.106 0-.343-.42-1.301-.664-1.846l-.21-.472s-.826-1.95-1.067-2.528c-.492-.028-1.893-.114-2.38-.088-.925.06-1.621-.142-2.056-.566a1.708 1.708 0 0 1-.139-.174c-.346-.041-.764-.183-.963-.45-.387-.49-.373-.814-.373-.814s.502.33.893.352a.44.44 0 0 0 .177 0c.012-.109.073-.254.161-.431a.762.762 0 0 1-.237-.232c-.344-.526-.299-.841-.299-.841s.477.375.868.428a.117.117 0 0 0 .035.004c.103-.144.195-.287.302-.432-.041-.039-.066-.079-.099-.129-.35-.524-.302-.846-.302-.846s.45.372.841.439c.113-.15.231-.268.348-.367.541-.49 1.729-.198 3.322.27l1.142.298c.768.144 1.254.449 1.612 1.031l.293.646c.145.325.302.697.429.891.186.297.373.635.583 1.017.271.232.511.444.69.575.509.398 1.801 1.115 1.801 1.115s-.252.55-.783.61c-.008 0 .514.592 1.133.948.463.265 1.332.414 1.332.414s-.606.501-1.076.709c-.177.088-.42.138-.653.177-.023.264-.16.564-.417.951-.46.705.209 2.212.682 3.071.242-.338.667-.904 1.394-1.702 0 0 2.303-2.515 2.818-3.08a31.376 31.376 0 0 0-.936-3.059c-.37-1.005-.9-2.06-1.163-2.584-.561-.033-1.819-.09-2.278-.073-.93.047-1.623-.152-2.053-.589-.072-.064-.122-.142-.175-.21-.311-.059-.657-.208-.828-.431-.387-.511-.364-.829-.364-.829s.375.357.895.37h.071c.02-.105.084-.26.165-.425a.845.845 0 0 1-.224-.237c-.343-.528-.299-.842-.299-.842s.465.372.859.435h.042c.118-.179.252-.371.384-.549 0-.005 0-.005-.004-.005-.346-.525-.301-.849-.301-.849s.352.278.696.391c.096-.113.206-.214.292-.292.545-.488 1.729-.196 3.34.263l1.125.3c.772.14 1.248.448 1.606 1.024.15.256.867 1.886 1.051 2.371.349.855.74 1.719 1.115 2.53.191.158.372.307.52.404.62.439 1.974 1.209 1.974 1.209s-.267.585-.787.621c-.006 0 .53.516 1.07.856.495.318 1.393.489 1.393.489s-.647.513-1.106.702c-.269.125-.658.194-.932.234-.079.378-.267.512-.564.662-.254.126-.611.314-1.15.943-.694.816-.793 2.378-.793 3.935v1.015l.014 1.495c-.054 1.759-.31 2.984-.554 3.784 2.284.217 6.485.676 8.203 2.783.513.633.774 1.369.774 2.173C.15-.756.1-.387 0 0" clip-path="url(#o)" style="fill:#004282;fill-opacity:1;fill-rule:nonzero;stroke:none" transform="matrix(1.33333 0 0 -1.33333 89.412 47.517)"/>
  <path d="M0 0c.365.258 1.221.967.756 1.828-.482.911-1.594.542-1.926.406-.049.04-2.523 1.115-2.556 1.103.033.012-.959-1.144-.959-1.144s-.981 1.156-.958 1.144c-.031.012-2.502-1.063-2.552-1.103-.328.136-1.44.505-1.925-.406-.466-.861.395-1.57.755-1.828l-.008-.014s-.806-1.421-.791-1.408c.014.023 2.327-2.801 2.316-2.801.011.008 0-1.817-.005-1.824 0 0 .92-.613 1-.64.138-.693.182-1.044.349-1.429.051-.114.934-.369 1.789-.386h.065c.867.017 1.744.272 1.789.386.17.385.211.736.354 1.429.068.027.989.64.989.64v1.824S.783-1.399.801-1.422A149.58 149.58 0 0 1 .008-.014zm-7.999-.128 2.075.017h.078l-.078-1.2zm4.835-1.21c.008-.091.316-2.877.316-2.877s-1.504-.823-1.57-.867c0-.082-.016-.958-.016-1.024.065-.052.342-.257.621-.378a1.74 1.74 0 0 1 1.03-.082l.131.03-.115-.391-.047-.008c-.022 0-.592-.098-1.061.035-.411.128-.627.286-.674.334h-.258c-.05-.041-.275-.206-.68-.334-.476-.133-1.054-.035-1.073-.035l-.045.008-.11.391.133-.03s.515-.135 1.029.082c.278.121.555.326.622.378l-.003 1.042a754.1 754.1 0 0 0-1.59 1.119l2.831.007v3.766l2.239.013.284.007s-1.922-1.136-1.994-1.186" clip-path="url(#p)" style="fill:#f5821f;fill-opacity:1;fill-rule:nonzero;stroke:none" transform="matrix(1.33333 0 0 -1.33333 46.57 45.228)"/>
  <path d="M0 0c.308.285.458.434.458.635 0 .171-.112.383-.336.728-.176.266-.238.589-.238.931 0 1.117.737 2.479 1.039 2.962-.082.113-.2.266-.35.461a1.54 1.54 0 0 1-.19.135c-.192.145-.685.551-.993.953-.037.062-.088.136-.122.21-.639.009-2.12.065-3.65-.402.465-.274.588-.616.602-1.079-1.001.22-1.848.234-2.617.129.267-.457.544-.914.675-1.095.661-.938 1.653-2.236 2.463-3.034a.767.767 0 0 0 .176-.511c0-.497-.308-1.2-.697-2.087l-.205-.481-1.209-2.835-.182-.008c-.082-.007-1.99-.124-2.615-.094-.683.035-1.197-.077-1.526-.331a.736.736 0 0 0 .02-.463.653.653 0 0 0-.305-.385c.016-.019.025-.06.051-.083.371.12.738.153.738.153s.209-.266.117-.615c-.062-.259-.184-.394-.277-.462.023-.031.047-.077.078-.104.418.165.883.212.883.212s.217-.335.147-.683a.643.643 0 0 0-.221-.367c.502-.165 1.826.224 2.65.459l1.193.3c.618.112.956.329 1.218.763l.271.58c.148.355.309.738.474.971.356.566.778 1.43 1.172 2.244C-.784-1.23-.33-.299 0 0" clip-path="url(#q)" style="fill:#f5821f;fill-opacity:1;fill-rule:nonzero;stroke:none" transform="matrix(1.33333 0 0 -1.33333 67.51 72.974)"/>
  <path d="M0 0v-.032h.012C.012-.021 0-.021 0 0" clip-path="url(#r)" style="fill:#f5821f;fill-opacity:1;fill-rule:nonzero;stroke:none" transform="matrix(1.33333 0 0 -1.33333 37.132 63.176)"/>
  <path d="M0 0c-.365-.553-1.045-.816-1.91-.921.161.854.017 1.459-.299 2.14-.284.602-1.042 1.788-1.272 2.468-.064.196-.128.362-.183.528-1.209.882-2.533 1.953-3.193 2.832-.165.203-.401.957-.868 2.487l-.211.694-.11.383c-.308 1.13-.552 1.746-.712 1.823-.124.033-.224.04-.326.051v-.01s-.053-.339-.635-.312a.705.705 0 0 0-.336.102c-.061-.032-.096-.064-.144-.101l-.044-.033c-.034-.029-.058-.055-.081-.077.337-.304.578-.695.578-.695s-.133-.362-.574-.436c-.315-.058-.559.164-.559.164s0 .115-.047.273a1.33 1.33 0 0 1-.121-.92c.445-.228.832-.648.832-.648s-.011-.332-.473-.568a.539.539 0 0 0-.462.015c-.065-.331.132-.815.483-1.156l1.251-1.028.033-.062c.391-.895.858-1.736 1.13-2.043.1-.12.474-.751 1.51-2.536C-5.37.052-3.293-3.515-2.76-4.109c.215-.193 1.613.131 3.017.697C-.24-2.034.193-1.183 0 0" clip-path="url(#s)" style="fill:#f5821f;fill-opacity:1;fill-rule:nonzero;stroke:none" transform="matrix(1.33333 0 0 -1.33333 33.85 58.797)"/>
  <path d="M0 0c-.257.926-.691 1.304-1.346 1.66-1.865.996-4.45.258-6.717-.514-1.929-.653-2.46-.827-4.468-1.134-2.045-.317-6.989-.887-8.753.568-.357.287-.661.852-.693 1.274-.054.705.237 1.537.549 1.878.537.587 1.571.855 3.352.855 0 0 2.665-.049 4.138-.062l.307.283-.299.318c-1.848.122-3.291.185-4.134.185-2.161 0-3.368-.323-4.077-1.091-.578-.625-.831-1.442-.746-2.437.066-.749.397-1.373.998-1.86 1.852-1.532 7.276-1.174 9.616-.764C-10-.437-9.332-.264-8.024.173l.075.024c1.216.404 4.42 1.474 5.963.657.423-.212.699-.601.853-1.164.186-.69.091-1.248-.289-1.721-1.373-1.679-5.773-1.918-8.144-2.045h-.051l-.041.009c-.012.003-1.391.34-3.186.354-1.142.003-2.111-.07-3.133-.15-1.913-.141-3.901-.289-7.202.087-1.463.16-2.848.434-3.928.746-.069-.449-.246-.947-.465-1.595-.221-.674-.99-1.861-1.269-2.47-.319-.68-.468-1.274-.301-2.139-.873.104-1.542.368-1.905.92-.259-1.629.655-2.609-1.283-5.216-.188.79-1.277 1.034-1.18 1.932-.354-.933.197-1.473-.572-3.011-.191-.389-1.277-1.989-1.869-2.466-.237-1.094-.652-2.963-1.086-4.507-.592-2.098-1.069-3.044-1.305-3.424l-.084-.133-.148-.013c-.625-.028-2.082-.077-2.549-.061-.64.033-1.147-.072-1.479-.282.024-.158.041-.381-.049-.551a.715.715 0 0 0-.366-.313c.009-.04.034-.08.052-.121.418.121.838.125.838.125s.176-.355-.003-.78a.617.617 0 0 0-.25-.296c.035-.053.077-.12.12-.173.438.191.96.256.96.256s.2-.267.07-.808a.443.443 0 0 0-.208-.296c.583-.176 2.227.255 3.141.499l1.169.283c.627.119.986.347 1.261.797.054.095.146.379.232.618l.106.326c.256.724.474 1.224.995 2.062 1.194 1.908 4.716 7.662 4.86 8.12v.093c0 .305-.148.98-.265 1.412l-.076.272s11.41 3.331 12.07 3.531a344.32 344.32 0 0 0-.698 1.205l.409.38c.035-.026.92-.668 1.402-1.143.416-.421.824-1.082 1.258-1.768l.221-.355c.492-.776.974-1.346.974-1.359l.016-.012.015-.021c0-.005.381-.678 1.577-2.006l3.017-3.308-.027-.136c-.01-.02-.365-1.569-.985-3.271-.417-1.126-1.031-2.331-1.277-2.801l-.078-.14-.152-.006c-.591-.033-1.987-.119-2.506-.084-.641.026-1.137-.074-1.457-.29.043-.151.075-.375-.014-.565a.814.814 0 0 0-.326-.361c.021-.014.037-.05.051-.078.375.119.728.159.728.159s.197-.303.134-.675c-.048-.249-.172-.371-.269-.423.036-.054.07-.1.112-.149.442.215 1.011.269 1.011.269s.196-.259.132-.662a.613.613 0 0 0-.264-.392c.593-.068 1.76.275 2.519.487l1.184.308c.605.112.955.325 1.221.77.117.189.767 1.686 1.018 2.28.721 1.759 1.769 3.971 2.454 5.164l.384.596c.217.339.417.63.39.828-.015.266-.03.281-.278.396-.285.138-.718.369-1.322 1.088-.996 1.15-.965 3.381-.93 5.326v1.472c-.051 1.937-.359 3.224-.617 3.962l-.115.347.364.029c2.11.192 6.507.586 8.159 2.599C.121-2.011.291-1.055 0 0" clip-path="url(#t)" style="fill:#f5821f;fill-opacity:1;fill-rule:nonzero;stroke:none" transform="matrix(1.33333 0 0 -1.33333 88.68 47.712)"/>
  <path d="M0 0c.245-.332.453-.682.618-1.068a4.479 4.479 0 0 0-1.227 0c.15.386.36.736.609 1.068" clip-path="url(#u)" style="fill:#fff;fill-opacity:1;fill-rule:nonzero;stroke:none" transform="matrix(1.33333 0 0 -1.33333 73.503 17.464)"/>
  <path d="M0 0c0 .078.014.153.014.22 0 3.76-3.067 6.819-6.822 6.819-3.759 0-6.82-3.059-6.82-6.819l.004-.22c-2.156-1.147-3.637-3.414-3.637-6.024 0-3.758 3.062-6.821 6.821-6.821 1.299 0 2.542.366 3.632 1.054a6.84 6.84 0 0 1 3.628-1.054c3.765 0 6.812 3.063 6.812 6.821A6.852 6.852 0 0 1 0 0m-7.337-6.553.529-.04c.176 0 .346.014.526.029a4.125 4.125 0 0 0-.526-1.558c-.267.475-.46.998-.529 1.569m3.709.751A6.76 6.76 0 0 1-.656-2.685a4.15 4.15 0 0 0 1.669-3.339c0-2.311-1.877-4.2-4.193-4.2-.579 0-1.139.121-1.64.34a6.734 6.734 0 0 1 1.2 3.86zM-10.44.795c-.178 0-.352-.013-.529-.03a4.166 4.166 0 0 0 4.161 3.652A4.215 4.215 0 0 0-2.645.758l-.535.037A6.77 6.77 0 0 1-6.8-.252 6.799 6.799 0 0 1-10.44.795m7.26-2.627h.017A4.112 4.112 0 0 0-4.276-3.11a8.03 8.03 0 0 1-.533.942 4.088 4.088 0 0 0 1.629.336m-9.793-.857a6.769 6.769 0 0 1 2.986-3.113c0-.075-.014-.146-.014-.222 0-1.427.454-2.758 1.197-3.853a4.043 4.043 0 0 0-1.636-.347 4.201 4.201 0 0 0-4.193 4.2c0 1.364.65 2.573 1.66 3.335m3.625-.425a4.146 4.146 0 0 0-1.114 1.282h.022c.584 0 1.134-.115 1.64-.336a7.55 7.55 0 0 1-.548-.946" clip-path="url(#v)" style="fill:#f5821f;fill-opacity:1;fill-rule:nonzero;stroke:none" transform="matrix(1.33333 0 0 -1.33333 82.58 13.143)"/>
  <path d="M0 0c.393.075.765.187 1.114.323a5.934 5.934 0 0 0-1.1-3.372c-.313.206-.59.453-.838.726.48.694.759 1.49.824 2.323" clip-path="url(#w)" style="fill:#fff;fill-opacity:1;fill-rule:nonzero;stroke:none" transform="matrix(1.33333 0 0 -1.33333 75.22 21.809)"/>
  <path d="M0 0c3.338 0 6.048-2.719 6.048-6.055 0-3.339-2.71-6.057-6.048-6.057l-.559.041c.017.368.082.732.199 1.081l.36-.02a4.954 4.954 0 0 1 4.951 4.955A4.955 4.955 0 0 1 0-1.099a4.918 4.918 0 0 1-4.932-4.518 7.703 7.703 0 0 1-1.123-.319C-5.984-2.651-3.299 0 0 0" clip-path="url(#x)" style="fill:#fff;fill-opacity:1;fill-rule:nonzero;stroke:none" transform="matrix(1.33333 0 0 -1.33333 73.503 4.822)"/>
  <path d="m0 0 .55-.044a4.073 4.073 0 0 0-.201-1.08L0-1.101a4.968 4.968 0 0 1-2.12-.481 6.013 6.013 0 0 1-.836.813A6.058 6.058 0 0 0 0 0" clip-path="url(#y)" style="fill:#fff;fill-opacity:1;fill-rule:nonzero;stroke:none" transform="matrix(1.33333 0 0 -1.33333 78.34 13.154)"/>
  <path d="M0 0c-3.334 0-6.057 2.714-6.057 6.053 0 3.341 2.723 6.055 6.057 6.055a6.023 6.023 0 0 0 5.514-3.549 4.038 4.038 0 0 0-1.043-.366A4.954 4.954 0 0 1 0 11.006c-2.734 0-4.961-2.223-4.961-4.953A4.964 4.964 0 0 1 0 1.099c.738 0 1.461.17 2.121.477.266-.292.536-.555.838-.801A6.038 6.038 0 0 0 0 0" clip-path="url(#z)" style="fill:#fff;fill-opacity:1;fill-rule:nonzero;stroke:none" transform="matrix(1.33333 0 0 -1.33333 68.66 29.297)"/>
  <path d="M0 0a4.925 4.925 0 0 1 1.654-1.926 5.877 5.877 0 0 1-.285-1.133A6.006 6.006 0 0 0-1.029-.373C-.703-.205-.359-.077 0 0" clip-path="url(#A)" style="fill:#fff;fill-opacity:1;fill-rule:nonzero;stroke:none" transform="matrix(1.33333 0 0 -1.33333 67.53 15.743)"/>
  <path d="M0 0c-3.339 0-6.059 2.714-6.059 6.053 0 1.272.388 2.474 1.125 3.496.3-.207.579-.447.824-.728a4.89 4.89 0 0 1-.856-2.768c0-2.732 2.227-4.954 4.966-4.954a4.964 4.964 0 0 1 4.959 4.954 4.91 4.91 0 0 1-2.135 4.062c.119.364.212.744.276 1.135a6.095 6.095 0 0 0 2.952-5.197A6.057 6.057 0 0 0 0 0" clip-path="url(#B)" style="fill:#fff;fill-opacity:1;fill-rule:nonzero;stroke:none" transform="matrix(1.33333 0 0 -1.33333 78.34 29.297)"/>
</svg>
