<?xml version="1.0" encoding="UTF-8" standalone="no"?>
<svg
   viewBox="0 0 20 20"
   id="split"
   fill="none"
   x="0px"
   y="0px"
   version="1.1"
   sodipodi:docname="noun-split-4453312.svg"
   width="20"
   height="20"
   inkscape:version="1.3.2 (091e20e, 2023-11-25)"
   xmlns:inkscape="http://www.inkscape.org/namespaces/inkscape"
   xmlns:sodipodi="http://sodipodi.sourceforge.net/DTD/sodipodi-0.dtd"
   xmlns="http://www.w3.org/2000/svg"
   xmlns:svg="http://www.w3.org/2000/svg">
  <defs
     id="defs2" />
  <sodipodi:namedview
     id="namedview2"
     pagecolor="#ffffff"
     bordercolor="#000000"
     borderopacity="0.25"
     inkscape:showpageshadow="2"
     inkscape:pageopacity="0.0"
     inkscape:pagecheckerboard="0"
     inkscape:deskcolor="#d1d1d1"
     inkscape:zoom="6.7428571"
     inkscape:cx="14.014831"
     inkscape:cy="17.425847"
     inkscape:window-width="1712"
     inkscape:window-height="836"
     inkscape:window-x="0"
     inkscape:window-y="25"
     inkscape:window-maximized="0"
     inkscape:current-layer="split" />
  <path
     fill-rule="evenodd"
     clip-rule="evenodd"
     d="M 9.93794,0 C 9.3890485,0 8.944079,0.4449268 8.944079,0.9937864 V 19.006245 C 8.944079,19.555137 9.3890485,20 9.93794,20 c 0.548785,0 0.993754,-0.444863 0.993754,-0.993755 V 0.9937864 C 10.931694,0.4449268 10.486725,0 9.93794,0 Z M 0,6.5739318 C 0,5.3978451 0.95343153,4.4444136 2.1295501,4.4444136 H 6.9565694 V 15.555522 H 2.1295501 C 0.95343153,15.555522 0,14.602123 0,13.425972 Z M 12.91931,4.4444136 h 4.826945 c 1.17615,0 2.12955,0.9534315 2.12955,2.1295182 v 6.8520402 c 0,1.176151 -0.9534,2.12955 -2.12955,2.12955 H 12.91931 Z"
     fill="#000000"
     id="path1"
     style="stroke-width:1.06478" />
</svg>
