<svg xmlns="http://www.w3.org/2000/svg" id="nusllogo" viewBox="0 0 225.591 60">
  <defs>
    <clipPath id="a" clipPathUnits="userSpaceOnUse">
      <path d="M-326.757 296.403h841.89v-595.28h-841.89Z"/>
    </clipPath>
    <clipPath id="b" clipPathUnits="userSpaceOnUse">
      <path d="M-289.853 291.88h841.89V-303.4h-841.89Z"/>
    </clipPath>
    <clipPath id="c" clipPathUnits="userSpaceOnUse">
      <path d="M-292.529 293.112h841.89v-595.28h-841.89Z"/>
    </clipPath>
    <clipPath id="d" clipPathUnits="userSpaceOnUse">
      <path d="M-322.687 319.207h841.89v-595.28h-841.89Z"/>
    </clipPath>
    <clipPath id="e" clipPathUnits="userSpaceOnUse">
      <path d="M-285.616 265.469h841.89v-595.28h-841.89Z"/>
    </clipPath>
    <clipPath id="f" clipPathUnits="userSpaceOnUse">
      <path d="M-296.402 265.162h841.89v-595.28h-841.89Z"/>
    </clipPath>
    <clipPath id="g" clipPathUnits="userSpaceOnUse">
      <path d="M-483.712 274.428h841.89v-595.28h-841.89Z"/>
    </clipPath>
    <clipPath id="h" clipPathUnits="userSpaceOnUse">
      <path d="M-514.816 284.532h841.89v-595.28h-841.89Z"/>
    </clipPath>
    <clipPath id="i" clipPathUnits="userSpaceOnUse">
      <path d="M-526.87 277.022h841.89v-595.28h-841.89Z"/>
    </clipPath>
    <clipPath id="j" clipPathUnits="userSpaceOnUse">
      <path d="M-483.712 304.084h841.89v-595.28h-841.89Z"/>
    </clipPath>
    <clipPath id="k" clipPathUnits="userSpaceOnUse">
      <path d="M0 595.28h841.89V0H0Z"/>
    </clipPath>
    <clipPath id="l" clipPathUnits="userSpaceOnUse">
      <path d="M-508.086 310.308h841.89v-595.28h-841.89Z"/>
    </clipPath>
    <clipPath id="m" clipPathUnits="userSpaceOnUse">
      <path d="M-516.54 308.727h841.89v-595.28h-841.89Z"/>
    </clipPath>
    <clipPath id="n" clipPathUnits="userSpaceOnUse">
      <path d="M-533.053 315.324h841.89v-595.28h-841.89Z"/>
    </clipPath>
    <clipPath id="o" clipPathUnits="userSpaceOnUse">
      <path d="M-539.02 308.727h841.89v-595.28h-841.89Z"/>
    </clipPath>
    <clipPath id="p" clipPathUnits="userSpaceOnUse">
      <path d="M0 595.28h841.89V0H0Z"/>
    </clipPath>
    <clipPath id="q" clipPathUnits="userSpaceOnUse">
      <path d="M-562.89 313.816H279v-595.28h-841.89Z"/>
    </clipPath>
    <clipPath id="r" clipPathUnits="userSpaceOnUse">
      <path d="M-567.574 318.856h841.89v-595.28h-841.89Z"/>
    </clipPath>
    <clipPath id="s" clipPathUnits="userSpaceOnUse">
      <path d="M-340.96 303.65h841.89v-595.28h-841.89Z"/>
    </clipPath>
    <clipPath id="t" clipPathUnits="userSpaceOnUse">
      <path d="M-353.099 309.619h841.89v-595.28h-841.89Z"/>
    </clipPath>
    <clipPath id="u" clipPathUnits="userSpaceOnUse">
      <path d="M-359.364 306.799h841.89v-595.28h-841.89Z"/>
    </clipPath>
    <clipPath id="v" clipPathUnits="userSpaceOnUse">
      <path d="M0 595.28h841.89V0H0Z"/>
    </clipPath>
    <clipPath id="w" clipPathUnits="userSpaceOnUse">
      <path d="M-364.872 308.944h841.89v-595.28h-841.89Z"/>
    </clipPath>
    <clipPath id="x" clipPathUnits="userSpaceOnUse">
      <path d="M-371.389 305.896h841.89v-595.28h-841.89Z"/>
    </clipPath>
    <clipPath id="y" clipPathUnits="userSpaceOnUse">
      <path d="M-382.308 309.619h841.89v-595.28h-841.89Z"/>
    </clipPath>
    <clipPath id="z" clipPathUnits="userSpaceOnUse">
      <path d="M0 595.28h841.89V0H0Z"/>
    </clipPath>
    <clipPath id="A" clipPathUnits="userSpaceOnUse">
      <path d="M-398.228 308.53h841.89v-595.28h-841.89Z"/>
    </clipPath>
    <clipPath id="B" clipPathUnits="userSpaceOnUse">
      <path d="M-400.253 305.896h841.89v-595.28h-841.89Z"/>
    </clipPath>
    <clipPath id="C" clipPathUnits="userSpaceOnUse">
      <path d="M0 595.28h841.89V0H0Z"/>
    </clipPath>
    <clipPath id="D" clipPathUnits="userSpaceOnUse">
      <path d="M-413.571 311.983h841.89v-595.28h-841.89Z"/>
    </clipPath>
    <clipPath id="E" clipPathUnits="userSpaceOnUse">
      <path d="M-417.632 308.35h841.89v-595.28h-841.89Z"/>
    </clipPath>
    <clipPath id="F" clipPathUnits="userSpaceOnUse">
      <path d="M-423.49 305.896H418.4v-595.28h-841.89Z"/>
    </clipPath>
    <clipPath id="G" clipPathUnits="userSpaceOnUse">
      <path d="M-427.687 310.79h841.89v-595.28h-841.89Z"/>
    </clipPath>
    <clipPath id="H" clipPathUnits="userSpaceOnUse">
      <path d="M0 595.28h841.89V0H0Z"/>
    </clipPath>
    <clipPath id="I" clipPathUnits="userSpaceOnUse">
      <path d="M-439.331 306.799h841.89v-595.28h-841.89Z"/>
    </clipPath>
    <clipPath id="J" clipPathUnits="userSpaceOnUse">
      <path d="M-440.3 313.636h841.89v-595.28H-440.3Z"/>
    </clipPath>
    <clipPath id="K" clipPathUnits="userSpaceOnUse">
      <path d="M-341.652 323.055h841.89v-595.28h-841.89Z"/>
    </clipPath>
    <clipPath id="L" clipPathUnits="userSpaceOnUse">
      <path d="M-348.886 320.923h841.89v-595.28h-841.89Z"/>
    </clipPath>
    <clipPath id="M" clipPathUnits="userSpaceOnUse">
      <path d="M-359.687 319.018h841.89v-595.28h-841.89Z"/>
    </clipPath>
    <clipPath id="N" clipPathUnits="userSpaceOnUse">
      <path d="M0 595.28h841.89V0H0Z"/>
    </clipPath>
    <clipPath id="O" clipPathUnits="userSpaceOnUse">
      <path d="M-365.089 320.008h841.89v-595.28h-841.89Z"/>
    </clipPath>
    <clipPath id="P" clipPathUnits="userSpaceOnUse">
      <path d="M-374.864 325.197h841.89v-595.28h-841.89Z"/>
    </clipPath>
    <clipPath id="Q" clipPathUnits="userSpaceOnUse">
      <path d="M-383.3 323.735h841.89v-595.28H-383.3Z"/>
    </clipPath>
    <clipPath id="R" clipPathUnits="userSpaceOnUse">
      <path d="M-390.923 323.031h841.89v-595.28h-841.89Z"/>
    </clipPath>
    <clipPath id="S" clipPathUnits="userSpaceOnUse">
      <path d="M-394.407 323.055h841.89v-595.28h-841.89Z"/>
    </clipPath>
    <clipPath id="T" clipPathUnits="userSpaceOnUse">
      <path d="M-400.912 320.008h841.89v-595.28h-841.89Z"/>
    </clipPath>
    <clipPath id="U" clipPathUnits="userSpaceOnUse">
      <path d="M-406.349 322.462h841.89v-595.28h-841.89Z"/>
    </clipPath>
    <clipPath id="V" clipPathUnits="userSpaceOnUse">
      <path d="M-418.163 287.03h841.89v-595.28h-841.89Z"/>
    </clipPath>
    <clipPath id="W" clipPathUnits="userSpaceOnUse">
      <path d="M-397.155 295.841h841.89v-595.28h-841.89Z"/>
    </clipPath>
    <clipPath id="X" clipPathUnits="userSpaceOnUse">
      <path d="M-368.331 257.485h841.89v-595.28h-841.89Z"/>
    </clipPath>
    <clipPath id="Y" clipPathUnits="userSpaceOnUse">
      <path d="M0 595.28h841.89V0H0Z"/>
    </clipPath>
  </defs>
  <path d="M0 0c-1.65-2.018-6.047-2.408-8.158-2.594l-.363-.034.117-.348c.254-.742.566-2.031.617-3.962l-.002-1.471c-.029-1.955-.062-4.17.924-5.33.613-.721 1.045-.94 1.328-1.084.244-.125.26-.131.283-.399.018-.197-.176-.486-.4-.82l-.381-.6c-.684-1.187-1.738-3.406-2.454-5.162-.247-.597-.895-2.099-1.01-2.285-.271-.437-.611-.654-1.226-.765l-1.183-.311c-.756-.217-1.932-.555-2.518-.486a.609.609 0 0 1 .26.39c.064.407-.127.672-.127.672s-.566-.058-1.019-.279a6.089 6.089 0 0 0-.112.154c.1.049.231.164.272.414.06.379-.123.678-.123.678s-.362-.035-.739-.164c-.015.033-.031.06-.045.086a.882.882 0 0 1 .329.365c.087.182.046.414.003.564.323.215.821.313 1.459.286.518-.026 1.92.048 2.5.08l.161.013.076.141c.244.467.859 1.67 1.271 2.797.629 1.711.987 3.25.991 3.266l.033.146-3.02 3.303c-1.195 1.33-1.576 1.994-1.58 2l-.014.021-.017.024c-.004.006-.487.578-.973 1.349l-.221.354c-.432.691-.841 1.345-1.263 1.769-.483.483-1.36 1.119-1.397 1.147l-.415-.377.702-1.213-12.065-3.531.076-.27c.12-.428.269-1.103.269-1.406a.57.57 0 0 0-.006-.088c-.143-.461-3.665-6.221-4.857-8.127-.521-.84-.736-1.332-.995-2.062l-.11-.325c-.082-.246-.174-.525-.231-.619-.276-.455-.629-.674-1.263-.793l-1.164-.287c-.921-.244-2.559-.68-3.141-.498a.433.433 0 0 1 .207.295c.131.539-.07.799-.07.799s-.516-.053-.959-.248a10.91 10.91 0 0 0-.124.174.578.578 0 0 1 .25.3c.178.422.005.774.005.774s-.421-.01-.838-.131c-.022.045-.04.086-.055.119a.732.732 0 0 1 .363.32c.099.168.079.393.049.553.336.217.84.315 1.484.283.465-.019 1.93.034 2.553.067l.149.01.078.125c.235.38.715 1.33 1.305 3.429.431 1.537.85 3.405 1.088 4.514.588.469 1.674 2.068 1.869 2.453.776 1.543.23 2.082.569 3.014-.094-.897.991-1.145 1.183-1.934 1.937 2.611 1.016 3.59 1.276 5.219.372-.557 1.041-.817 1.909-.924-.162.867-.013 1.457.305 2.147.281.603 1.042 1.792 1.269 2.465.22.651.396 1.153.465 1.594 1.08-.312 2.463-.576 3.928-.742 3.298-.377 5.28-.231 7.196-.084 1.024.078 1.99.152 3.135.144a15.038 15.038 0 0 0 3.187-.349l.041-.014.052.002C-6.686-1.166-2.279-.928-.91.74c.383.473.478 1.035.287 1.725-.154.564-.432.949-.848 1.168-1.539.82-4.752-.256-5.961-.66l-.076-.026c-1.306-.435-1.984-.607-4.26-1.008-2.337-.414-7.759-.773-9.608.758-.596.491-.93 1.117-.992 1.862-.084.994.164 1.815.738 2.44.703.763 1.924 1.089 4.077 1.089.84 0 2.291-.065 4.135-.185l.304-.324-.312-.282c-1.472.026-4.14.067-4.14.067-1.777 0-2.81-.264-3.35-.854-.312-.338-.606-1.176-.55-1.877.037-.426.343-.987.697-1.278 1.757-1.455 6.706-.878 8.751-.564 2.009.305 2.539.471 4.469 1.131 2.266.771 4.842 1.512 6.719.515.656-.349 1.086-.734 1.342-1.66C.801 1.723.625.762 0 0m-15.486-13.88c0-.34.068-.658.241-.924.227-.353.339-.556.339-.728 0-.201-.153-.356-.457-.637-.332-.309-.783-1.23-1.307-2.293-.402-.818-.818-1.662-1.185-2.242-.148-.233-.318-.625-.467-.975l-.265-.572c-.266-.437-.61-.652-1.223-.768l-1.193-.31c-.823-.236-2.143-.617-2.654-.453.09.064.187.176.224.367.073.359-.144.689-.144.689s-.462-.046-.885-.22c-.027.035-.052.076-.078.111.089.07.215.205.282.465a.774.774 0 0 1-.123.611s-.359-.031-.734-.16l-.049.1a.596.596 0 0 1 .304.377.828.828 0 0 1-.015.463c.319.248.84.365 1.522.33.624-.03 2.535.087 2.615.091l.176.012 1.211 2.846.205.469c.389.877.701 1.585.701 2.082 0 .212-.056.382-.187.515-.801.803-1.795 2.096-2.461 3.037-.127.18-.401.637-.666 1.09.761.108 1.609.098 2.613-.123-.021.451-.129.797-.6 1.072 1.526.461 3.006.418 3.642.401.043-.076.088-.147.131-.205.307-.403.799-.817.991-.953.041-.032.111-.075.189-.127.148-.205.27-.358.355-.463-.297-.492-1.048-1.852-1.048-2.975M-37.563-3.476c-.162.375-.207.733-.354 1.429-.069.018-.989.635-.989.635 0 .008.007 1.83.004 1.822.001 0-2.311 2.822-2.324 2.801l.794 1.408.009.022c-.358.248-1.214.959-.755 1.822.485.911 1.599.541 1.929.403.046.047 2.514 1.12 2.547 1.102-.022.015.96-1.141.962-1.141-.002 0 .986 1.156.963 1.141.032.018 2.5-1.055 2.546-1.102.331.138 1.445.508 1.931-.403.457-.863-.4-1.574-.758-1.822l.011-.022s.803-1.426.795-1.408c-.013.021-2.327-2.801-2.325-2.801-.002-.006 0-1.826-.002-1.822 0 0-.914-.617-.984-.635-.147-.696-.192-1.054-.354-1.429-.051-.121-.933-.378-1.788-.394h-.069c-.857.016-1.738.273-1.789.394m-5.804-6.17c-.534.594-2.609 4.165-3.982 6.528-1.035 1.784-1.407 2.415-1.509 2.528-.272.311-.74 1.152-1.136 2.051l-.028.059-1.251 1.035c-.358.328-.549.808-.492 1.152.117-.059.295-.109.47-.021.461.236.472.566.472.566s-.388.422-.837.654c-.069.354-.007.655.127.915.046-.16.041-.27.041-.27s.247-.226.567-.172c.444.08.573.434.573.434s-.245.398-.586.707l.086.07.048.039c.04.034.088.065.137.098a.761.761 0 0 1 .337-.102c.581-.027.635.319.635.319l-.001.002c.103-.01.21-.024.328-.051.169-.082.41-.693.718-1.822l.109-.386.209-.687c.467-1.535.704-2.279.862-2.488.666-.881 1.992-1.951 3.201-2.828l.181-.534c.227-.671.989-1.86 1.268-2.465.319-.688.469-1.282.305-2.149.869.11 1.538.369 1.909.926.19-1.188-.243-2.031.256-3.412-1.398-.557-2.811-.887-3.017-.696M1.059 2.92C.752 4.041.187 4.541-.566 4.939c-2.08 1.103-4.791.331-7.172-.48-1.792-.615-2.336-.797-4.369-1.111-1.538-.235-6.678-.899-8.303.443-.232.191-.467.615-.49.887-.047.561.207 1.229.402 1.442.411.449 1.368.668 2.928.668l3.978-.063c.25-.32.886-.836 2.502-1.182 2.57-.548 5.399.346 5.399.346s-.467.09-.856.383c-.344.258-.314.645-.314.645s.566-.276 1.39-.249c1.03.028 1.504.516 2.463.762.961.242 2.029.041 2.029.041s-.968 1.038-1.929 1.219c-.959.185-2.154-.062-2.154-.062s.298.135.656.458c.285.255.344.699.344.699s-1.149-.446-2.315-.386-1.08.481-3.339.543c-1.715.045-3.134-.971-3.72-1.468-1.832.119-3.277.183-4.121.183-2.331 0-3.677-.381-4.499-1.276-.687-.746-.986-1.713-.886-2.875.076-.902.478-1.658 1.196-2.254 2.176-1.797 8.01-1.246 10.072-.883 2.313.408 3.004.588 4.342 1.033l.078.022c1.035.351 4.188 1.4 5.512.701.267-.143.451-.408.562-.812.051-.186.076-.35.076-.501 0-.275-.083-.505-.253-.71C-2.561-.371-7.09-.619-9.055-.725c-.216.051-1.531.346-3.277.354-1.168.01-2.147-.066-3.182-.147-1.89-.138-3.843-.285-7.089.084-1.505.17-2.917.448-3.978.762-.049.401-.238.783-.642 1.24.779-.252 1.791.604 2.075 1.03-.003.039-1.383.406-1.465 1.298-.003.03.978-.078 1.384 1.267-.978.527-.67.724-1.139 1.382-.415.579-1.013.872-1.751.854.298.037.326 0 .65.164.426.211.72.796 1.141.771-.85 1.331-3.133 1.506-4.081 1.226.243.302.617.638.621 1.052-1.261-.347-2.499.308-3.773.07-1.054-.195-1.656-.626-1.986-1.628H-35.595c-.333 1.002-.933 1.433-1.988 1.628-1.273.238-2.511-.417-3.774-.07.006-.414.379-.75.62-1.052-.944.28-3.228.105-4.078-1.226.421.025.715-.56 1.139-.771.373-.189.448-.15.651-.164-.736.018-1.336-.275-1.75-.854-.472-.658-.163-.855-1.139-1.382.407-1.345 1.385-1.237 1.384-1.267-.082-.892-1.462-1.259-1.466-1.298.285-.426 1.296-1.282 2.076-1.03-.639-.716-.745-1.265-.601-1.982-.993.75-1.972 1.58-2.494 2.269-.121.178-.51 1.463-.769 2.309l-.211.695-.103.364c-.31 1.145-.611 2.102-1.131 2.227a2.528 2.528 0 0 1-.768.07c-.181.281-.43.576-.722.667-.602.183-.894.052-.894.052s.487-.348.653-.711c.041-.092.067-.18.085-.258a2.465 2.465 0 0 1-.292-.195l-.044-.035c-.061-.053-.145-.122-.235-.204a.673.673 0 0 1-.124.028c-.625.084-.892-.1-.892-.1s.339-.164.591-.396a1.987 1.987 0 0 1-.398-1.17c0-.047.006-.096.011-.147-.597-.045-.819-.262-.819-.262s.581-.156.861-.434c.031-.033.06-.06.083-.091-.026-.034-.048-.055-.048-.055a1.157 1.157 0 0 1-.173-.625c0-.523.292-1.084.695-1.449l1.17-.971c.425-.947.893-1.775 1.201-2.125.097-.125.751-1.25 1.444-2.444l.283-.491c.149-.728.318-1.64.393-2.355.137-1.289.006-2.728.006-2.728s.836.042 1.214.583c.007.016.308-.89.264-1.91-.033-.757-.234-1.802-.234-1.802s.813.431 1.426.972c.307.274.62.719.808 1.018.673-.432 2.6.256 3.56.64.188-.38.445-.802.8-1.281.141.578.756.865 1.041 1.326h.262c.035-.63-.147-1.222.45-2.402.169-.336.997-1.568 1.6-2.205-.228-1.066-.661-3.016-1.109-4.611-.512-1.827-.927-2.731-1.165-3.155-.686-.033-1.943-.076-2.342-.058-.955.045-1.663-.155-2.102-.594-.034-.035-.058-.066-.086-.1-.334-.046-.716-.152-.924-.388-.416-.469-.419-.789-.419-.789s.521.3.915.3a.46.46 0 0 0 .084-.007v-.079c.005-.091.06-.242.147-.425a.684.684 0 0 1-.169-.157c-.383-.5-.362-.82-.362-.82s.487.326.88.36c.122-.198.26-.397.405-.592-.017-.02-.035-.041-.048-.063-.346-.527-.299-.847-.299-.847s.386.306.751.406a3.95 3.95 0 0 1 .365-.373c.574-.506 2.003-.178 3.812.303l1.121.277c.793.148 1.285.461 1.647 1.053.086.146.165.377.286.742l.107.316c.249.701.443 1.149.94 1.945.016.026.5.805 1.161 1.879.585.487 1.29 1.053 1.803 1.399.782.529 2.34 1.322 2.34 1.322s-.417.678-1.034.768c-.014.002.789.818 1.46 1.107.757.33 1.732.508 1.732.508s-.354.732-.904 1.082c.228.076.438.211.698.381 1.317.859 2.287.83 3.201.572.037.594-.113.957-.629 1.297a8.45 8.45 0 0 0 1.354.457c.3-.52.64-1.086.794-1.303.678-.961 1.697-2.283 2.523-3.115.022-.018.032-.057.032-.107 0-.348-.424-1.305-.664-1.852l-.207-.473-1.073-2.523c-.484-.027-1.884-.104-2.376-.078-.932.043-1.622-.151-2.05-.578-.055-.055-.102-.114-.145-.166-.345-.063-.761-.19-.968-.452-.388-.496-.372-.816-.372-.816s.502.328.897.352a.808.808 0 0 0 .172-.006c.016-.1.074-.248.163-.426a.918.918 0 0 1-.231-.23c-.346-.526-.3-.842-.3-.842s.471.369.864.427a.15.15 0 0 1 .042.004 9.16 9.16 0 0 1 .301-.435.59.59 0 0 1-.101-.121c-.346-.53-.301-.848-.301-.848s.451.358.836.426c.121-.139.239-.262.347-.356.551-.488 1.726-.197 3.326.264l1.14.299c.774.142 1.252.451 1.605 1.029.003.002.303.647.303.647.141.328.301.699.424.888.186.293.381.647.578 1.026.268.23.518.437.693.576.512.391 1.807 1.101 1.807 1.101s-.256.571-.786.625a5.16 5.16 0 0 0 1.14.944c.443.258 1.324.406 1.324.406s-.608.516-1.069.719a3.16 3.16 0 0 1-.658.174c-.028.265-.168.56-.422.951-.453.701.212 2.215.691 3.066.239-.338.671-.898 1.389-1.701 0 0 2.31-2.521 2.819-3.084-.1-.398-.424-1.658-.935-3.049-.37-1.011-.897-2.064-1.167-2.582-.554-.033-1.814-.097-2.275-.076-.932.045-1.623-.148-2.051-.578a1.664 1.664 0 0 1-.18-.221c-.312-.076-.652-.205-.828-.441-.381-.5-.356-.822-.356-.822s.376.357.888.369c.023.002.044 0 .066 0 .025-.11.087-.256.172-.426a.875.875 0 0 1-.227-.227c-.344-.527-.297-.843-.297-.843s.469.373.86.425c.013 0 .027 0 .043.006.121-.183.252-.369.386-.547l-.007-.011c-.346-.524-.301-.848-.301-.848s.348.279.695.391c.101-.112.199-.209.289-.293.553-.487 1.733-.196 3.338.265l1.131.297c.771.145 1.253.453 1.605 1.031.159.258.86 1.895 1.053 2.368.348.849.738 1.726 1.115 2.529.19.162.37.307.512.404.631.44 1.983 1.211 1.983 1.211s-.27.578-.788.621c-.007.002.53.516 1.065.858.496.314 1.398.496 1.398.496s-.648.49-1.109.693c-.272.117-.656.193-.928.233-.078.386-.273.513-.564.662-.258.13-.614.31-1.153.941-.693.82-.798 2.379-.798 3.934 0 .343.005.687.009 1.019l.004 1.496c-.047 1.756-.302 2.979-.545 3.787 2.289.209 6.485.673 8.203 2.773.516.629.778 1.371.778 2.176 0 .357-.053.734-.158 1.111" clip-path="url(#a)" style="fill-opacity:1;fill-rule:nonzero;stroke:none" transform="matrix(.73757 0 0 -.73757 42.268 29.541)"/>
  <path d="m0 0-.077-1.201-2.07 1.178z" clip-path="url(#b)" style="fill-opacity:1;fill-rule:nonzero;stroke:none" transform="matrix(.73757 0 0 -.73757 15.049 26.205)"/>
  <path d="m0 0 .329-2.875s-1.511-.82-1.585-.863l-.01-1.024c.07-.052.342-.256.624-.377.51-.215 1.021-.088 1.027-.088l.129.036-.11-.381-.047-.01c-.023-.004-.598-.107-1.066.033-.406.123-.619.278-.676.322h-.245c-.057-.039-.28-.199-.691-.322-.467-.14-1.043-.037-1.067-.033l-.047.01-.108.381.129-.036c.006 0 .515-.127 1.027.088.281.121.555.325.624.377l-.005 1.037-1.58 1.121s2.685.004 2.828.006v3.766l2.236.018.282.001S.081.051 0 0" clip-path="url(#c)" style="fill-opacity:1;fill-rule:nonzero;stroke:none" transform="matrix(.73757 0 0 -.73757 17.023 27.114)"/>
  <path d="M0 0c-7.59-11.971-20.187-16.34-21.937-16.896-1.744.562-14.301 4.925-21.887 16.896-7.607 11.979-7.884 21.595-7.884 22.905 0 .09.003.143.003.151v13.611H7.881V23.083c0-.01.004-.059.004-.16C7.885 21.581 7.602 11.979 0 0m-46.768 43.053v13.982l.344.058c.107.021 2.658.47 5.702.47 2.411 0 4.59-.724 5.547-1.096.957.372 3.134 1.096 5.548 1.096 3.044 0 5.593-.449 5.701-.47l.343-.058V40.816l-.505.111c-.021.005-2.13.456-5.236.456-2.337 0-4.756-.649-5.708-.992l-.144-.05-.142.05c-.953.343-3.373.992-5.708.992-3.106 0-5.215-.451-5.237-.456l-.505-.111zm37.233 4.733-.023-.069a6.602 6.602 0 0 1-.272-1.115l-.02-.141-.123.075a6.108 6.108 0 0 0-2.439 2.737l-.037.081.08.042c.346.172.703.299 1.062.373l.073.014.033-.066a4.892 4.892 0 0 1 1.605-1.889zm-.912 3.929c2.445 0 4.59-1.38 5.598-3.606l.037-.083-.083-.042a4.277 4.277 0 0 0-1.061-.373l-.073-.014-.033.067a4.821 4.821 0 0 1-4.385 2.765 4.868 4.868 0 0 1-4.861-4.863 4.866 4.866 0 0 1 4.861-4.861 4.87 4.87 0 0 1 2.082.478l.064.028.05-.052c.263-.301.538-.573.82-.8l.109-.091-.122-.067a6.145 6.145 0 0 0-3.003-.785 6.158 6.158 0 0 0-6.15 6.15 6.157 6.157 0 0 0 6.15 6.149m5.187-1.759-.064-.032-.049.055a6.577 6.577 0 0 1-.82.801l-.109.09.122.069a6.165 6.165 0 0 0 2.991.776h.003l.651-.046-.006-.093a4.298 4.298 0 0 0-.205-1.104l-.024-.071-.419.028a4.9 4.9 0 0 1-2.071-.473m-7.7 1.979c.064 3.323 2.819 6.028 6.142 6.028a6.156 6.156 0 0 0 6.15-6.15 6.157 6.157 0 0 0-6.156-6.149l-.649.047.004.094c.022.384.091.754.206 1.104l.023.07.422-.027a4.867 4.867 0 0 1 4.861 4.861 4.866 4.866 0 0 1-4.861 4.862 4.824 4.824 0 0 1-4.836-4.429l-.006-.07-.07-.013a6.524 6.524 0 0 1-1.102-.321l-.133-.049zm6.493-9.134.043.06c.464.688.735 1.453.807 2.278l.007.072.069.014c.361.07.721.175 1.101.318l.129.052-.001-.144a6.087 6.087 0 0 0-1.127-3.425l-.053-.077-.078.051a4.333 4.333 0 0 0-.846.745zm6.01 6.861c.121.35.213.727.273 1.118l.022.138.121-.072a6.187 6.187 0 0 0 3.004-5.28c0-3.391-2.76-6.15-6.152-6.15a6.156 6.156 0 0 0-6.149 6.15c0 1.28.393 2.51 1.136 3.551l.052.077.077-.051c.311-.206.597-.456.848-.745l.049-.056-.043-.06a4.846 4.846 0 0 1-.832-2.716 4.867 4.867 0 0 1 4.862-4.861 4.867 4.867 0 0 1 4.863 4.861c0 1.61-.764 3.061-2.094 3.985l-.059.041zM9.41 23.114v38.451h-62.642V23.083a4.945 4.945 0 0 1-.005-.295c0-1.814.394-11.429 8.124-23.606 8.444-13.325 22.377-17.444 22.965-17.614l.211-.06.21.06c.591.17 14.569 4.287 23.018 17.614C9.715 12.457 9.424 22.685 9.41 23.114" clip-path="url(#d)" style="fill-opacity:1;fill-rule:nonzero;stroke:none" transform="matrix(.73757 0 0 -.73757 39.266 46.36)"/>
  <path d="M0 0c-.109-.255-.437-.385-.73-.291-.015.008-1.366.553-2.568.553-1.327 0-2.884-.275-2.9-.279-.302-.08-.62.065-.714.324-.092.262.076.537.377.619.07.018 1.732.324 3.237.324 1.414 0 2.901-.593 2.966-.615C-.037.537.11.254 0 0m0-2.435c-.109-.255-.437-.385-.73-.29-.015.005-1.366.552-2.568.552-1.327 0-2.884-.276-2.9-.279-.302-.08-.62.065-.714.326-.092.26.076.537.377.617.07.017 1.732.322 3.237.322 1.414 0 2.901-.591 2.966-.612.295-.097.442-.381.332-.636m0-2.437c-.109-.254-.437-.382-.73-.288-.015.005-1.366.553-2.568.553-1.327 0-2.884-.277-2.9-.28-.302-.08-.62.063-.714.325-.092.26.076.537.377.619.07.018 1.732.323 3.237.323 1.414 0 2.901-.595 2.966-.618.295-.093.442-.376.332-.634m0-2.434c-.109-.256-.437-.383-.73-.289-.015.004-1.366.553-2.568.553-1.327 0-2.884-.276-2.9-.282-.302-.08-.62.065-.714.327-.092.259.076.535.377.618.07.018 1.732.323 3.237.323 1.414 0 2.901-.595 2.966-.615.295-.096.442-.381.332-.635M-3.633 2.97a36.18 36.18 0 0 1-5.212-.4V-9.689c.814.139 2.567.383 4.909.383 2.099 0 4.198-.481 5.432-.861V1.977c-.965.363-2.955.993-5.129.993" clip-path="url(#e)" style="fill-opacity:1;fill-rule:nonzero;stroke:none" transform="matrix(.73757 0 0 -.73757 11.924 6.725)"/>
  <path d="M0 0c-.094-.259-.412-.404-.712-.324-.016.004-1.573.279-2.899.279-1.204 0-2.554-.545-2.57-.553-.293-.094-.62.036-.73.291-.111.254.038.537.33.635.066.022 1.555.615 2.97.615C-2.108.943-.444.637-.375.619-.075.537.093.262 0 0m0-2.433c-.094-.261-.412-.406-.712-.326-.016.003-1.573.279-2.899.279-1.204 0-2.554-.547-2.57-.552-.293-.095-.62.035-.73.29-.111.255.038.538.33.636.066.021 1.555.612 2.97.612 1.503 0 3.167-.305 3.236-.322.3-.08.468-.357.375-.617m0-2.436c-.094-.262-.412-.405-.712-.325-.016.003-1.573.279-2.899.279-1.204 0-2.554-.547-2.57-.552-.293-.094-.62.033-.73.288-.111.258.038.541.33.634.066.023 1.555.618 2.97.618 1.503 0 3.167-.305 3.236-.323.3-.082.468-.359.375-.619m0-2.435c-.094-.262-.412-.407-.712-.327-.016.006-1.573.282-2.899.282-1.204 0-2.554-.549-2.57-.553-.293-.095-.62.033-.73.289-.111.254.038.539.33.635.066.02 1.555.615 2.97.615 1.503 0 3.167-.305 3.236-.323.3-.084.468-.359.375-.618m-3.324 9.967c-2.203 0-4.217-.647-5.168-1.007v-12.143c1.228.383 3.349.874 5.471.874 2.341 0 4.094-.244 4.909-.383V2.263c-.779.119-2.857.4-5.212.4" clip-path="url(#f)" style="fill-opacity:1;fill-rule:nonzero;stroke:none" transform="matrix(.73757 0 0 -.73757 19.88 6.499)"/>
  <path d="M0 0h3.36l7.609-13.883h.05V0h2.469v-17.243h-3.162L2.521-3.063h-.05v-14.18H0Z" clip-path="url(#g)" style="fill-opacity:1;fill-rule:nonzero;stroke:none" transform="matrix(.73757 0 0 -.73757 158.034 13.334)"/>
  <path d="M0 0c0-4.842-2.445-7.436-6.695-7.436-4.248 0-6.695 2.594-6.695 7.436v10.104h2.471V.321c0-3.31 1.038-5.583 4.224-5.583 3.187 0 4.224 2.273 4.224 5.583v9.783H0Z" clip-path="url(#h)" style="fill-opacity:1;fill-rule:nonzero;stroke:none" transform="matrix(.73757 0 0 -.73757 180.976 20.786)"/>
  <path d="M0 0c-1.26.494-1.951.716-3.236.716-1.383 0-3.014-.494-3.014-2.297 0-3.31 7.412-2.544 7.412-8.227 0-3.68-2.842-5.138-6.3-5.138-1.211 0-2.396.346-3.532.717l.246 2.297c.84-.346 2.322-.84 3.582-.84 1.408 0 3.385.791 3.385 2.816 0 3.854-7.411 2.792-7.411 8.153 0 3.063 2.421 4.694 5.534 4.694 1.136 0 2.494-.198 3.68-.618z" clip-path="url(#i)" style="fill-opacity:1;fill-rule:nonzero;stroke:none" transform="matrix(.73757 0 0 -.73757 189.865 15.247)"/>
  <path d="M0 0h2.471v-15.068h7.214v-2.174H0Z" clip-path="url(#j)" style="fill-opacity:1;fill-rule:nonzero;stroke:none" transform="matrix(.73757 0 0 -.73757 158.034 35.206)"/>
  <path d="M495.873 286.553h2.321v-12.599h-2.321zm2.47 2.815h-2.618v2.619h2.618z" clip-path="url(#k)" style="fill-opacity:1;fill-rule:nonzero;stroke:none" transform="matrix(.73757 0 0 -.73757 -198.738 249.985)"/>
  <path d="M0 0c-2.521 0-3.73-2.396-3.73-4.743 0-2.101 1.085-4.695 3.705-4.695 2.495 0 3.533 2.792 3.483 4.769C3.508-2.396 2.52 0 0 0m-6.053 7.51h2.323V-.148h.048c.717 1.161 1.977 2.025 4.176 2.025 3.656 0 5.434-2.988 5.434-6.373 0-3.459-1.606-6.818-5.41-6.818-2.248 0-3.68 1.136-4.298 2.075h-.05v-1.779h-2.223z" clip-path="url(#l)" style="fill-opacity:1;fill-rule:nonzero;stroke:none" transform="matrix(.73757 0 0 -.73757 176.011 39.798)"/>
  <path d="M0 0h2.174v-1.952h.049C2.84-.643 4.174.296 5.508.296 6.2.296 6.546.222 7.04.124v-2.076c-.42.174-.89.223-1.284.223-2.076 0-3.435-1.977-3.435-5.139v-5.731H0Z" clip-path="url(#m)" style="fill-opacity:1;fill-rule:nonzero;stroke:none" transform="matrix(.73757 0 0 -.73757 182.246 38.631)"/>
  <path d="M0 0c-.494 0-.988.05-1.482.05-1.26 0-4.372-.197-4.372-2.421 0-1.334 1.284-2.051 2.346-2.051C-1.211-4.422 0-2.988 0-1.111zm-6.893 5.707c1.163.691 2.545 1.186 4.151 1.186 3.607 0 5.064-1.779 5.064-5.212v-5.213c0-1.433.049-2.1.1-2.47H.247v1.63h-.05c-.543-.766-1.778-1.927-3.902-1.927-2.718 0-4.62 1.186-4.62 3.928 0 3.162 3.458 4.15 5.854 4.15.914 0 1.557 0 2.471-.049 0 2.174-.791 3.286-3.112 3.286-1.31 0-2.718-.495-3.657-1.286z" clip-path="url(#n)" style="fill-opacity:1;fill-rule:nonzero;stroke:none" transform="matrix(.73757 0 0 -.73757 194.426 43.497)"/>
  <path d="M0 0h2.175v-1.952h.05C2.842-.643 4.176.296 5.51.296c.691 0 1.037-.074 1.531-.172v-2.076c-.42.174-.889.223-1.284.223-2.075 0-3.435-1.977-3.435-5.139v-5.731H0Z" clip-path="url(#o)" style="fill-opacity:1;fill-rule:nonzero;stroke:none" transform="matrix(.73757 0 0 -.73757 198.827 38.631)"/>
  <path d="M548.494 286.553h2.322v-12.599h-2.322zm2.471 2.815h-2.619v2.619h2.619z" clip-path="url(#p)" style="fill-opacity:1;fill-rule:nonzero;stroke:none" transform="matrix(.73757 0 0 -.73757 -198.738 249.985)"/>
  <path d="M0 0c0 1.927-1.136 3.508-3.137 3.508-2.273 0-3.211-1.877-3.384-3.508Zm1.508-6.992c-.89-.32-1.903-.815-3.978-.815-4.471 0-6.522 2.717-6.522 6.819 0 3.73 2.347 6.373 5.904 6.373 4.2 0 5.559-3.063 5.559-7.114h-8.992c0-2.496 1.952-4.201 4.15-4.201 1.531 0 3.31.791 3.879 1.26z" clip-path="url(#q)" style="fill-opacity:1;fill-rule:nonzero;stroke:none" transform="matrix(.73757 0 0 -.73757 216.434 42.385)"/>
  <path d="M0 0c.914-.593 2.223-.89 2.891-.89 1.062 0 2.371.446 2.371 1.804 0 2.298-5.459 2.101-5.459 5.633 0 2.618 1.951 3.878 4.446 3.878 1.087 0 1.977-.222 2.891-.494l-.199-2.026c-.518.322-1.902.643-2.445.643-1.185 0-2.223-.494-2.223-1.531 0-2.571 5.459-1.829 5.459-5.856 0-2.692-2.149-3.928-4.397-3.928-1.186 0-2.396.123-3.458.692z" clip-path="url(#r)" style="fill-opacity:1;fill-rule:nonzero;stroke:none" transform="matrix(.73757 0 0 -.73757 219.888 46.102)"/>
  <path d="M0 0h1.618l3.67-6.713h.029V0h1.19v-8.336H4.989L1.204-1.474h-.021v-6.862H0Z" clip-path="url(#s)" style="fill-opacity:1;fill-rule:nonzero;stroke:none" transform="matrix(.73757 0 0 -.73757 52.745 34.886)"/>
  <path d="M0 0c0-.909-.58-1.604-1.69-1.604-.516 0-1.142.353-1.142 1.001C-2.832.46-1.326.552-.712.552c.237 0 .471-.029.712-.029zm-3.269 2.349c.452.379 1.134.606 1.759.606C-.379 2.955 0 2.428 0 1.373c-.439.024-.76.024-1.193.024-1.157 0-2.83-.475-2.83-2 0-1.33.917-1.911 2.23-1.911 1.03 0 1.629.565 1.893.934h.02v-.784h1.056c-.031.177-.053.492-.053 1.191v2.519c0 1.655-.701 2.528-2.449 2.528a3.842 3.842 0 0 1-2.006-.573l.063-.952" clip-path="url(#t)" style="fill-opacity:1;fill-rule:nonzero;stroke:none" transform="matrix(.73757 0 0 -.73757 61.697 39.29)"/>
  <path d="M0 0h-1.621v-3.33c0-.709.423-1.095.946-1.095.354 0 .592.115.761.223v-.966a3.274 3.274 0 0 0-.953-.166c-1.153 0-1.875.551-1.875 1.771V0h-1.373v.904h1.373v1.414l1.121.359V.904H0V0" clip-path="url(#u)" style="fill-opacity:1;fill-rule:nonzero;stroke:none" transform="matrix(.73757 0 0 -.73757 66.319 37.209)"/>
  <path d="M360.913 283.295h1.121v6.089h-1.121zm-.07 7.449h1.262v1.268h-1.262z" clip-path="url(#v)" style="fill-opacity:1;fill-rule:nonzero;stroke:none" transform="matrix(.73757 0 0 -.73757 -198.738 249.985)"/>
  <path d="M0 0c0 1.162.713 2.28 1.914 2.28C3.11 2.28 3.818 1.162 3.818 0c0-1.081-.586-2.279-1.904-2.279C.595-2.279 0-1.081 0 0m-1.186 0c0-1.742 1.263-3.188 3.1-3.188 1.83 0 3.102 1.446 3.102 3.188 0 1.854-1.252 3.199-3.102 3.199-1.863 0-3.1-1.345-3.1-3.199" clip-path="url(#w)" style="fill-opacity:1;fill-rule:nonzero;stroke:none" transform="matrix(.73757 0 0 -.73757 70.381 38.791)"/>
  <path d="M0 0h1.089v-.969h.02c.337.699 1.148 1.12 1.99 1.12 1.58 0 2.293-.988 2.293-2.621v-3.617H4.261v3.156c0 1.412-.301 2.103-1.291 2.163-1.272 0-1.849-1.018-1.849-2.506v-2.813H0V0" clip-path="url(#x)" style="fill-opacity:1;fill-rule:nonzero;stroke:none" transform="matrix(.73757 0 0 -.73757 75.187 36.543)"/>
  <path d="M0 0c0-.909-.588-1.604-1.695-1.604-.52 0-1.139.353-1.139 1.001C-2.834.46-1.33.552-.729.552c.249 0 .49-.029.729-.029zm-3.275 2.349c.445.379 1.136.606 1.759.606C-.393 2.955 0 2.428 0 1.373c-.445.024-.752.024-1.201.024-1.16 0-2.834-.475-2.834-2 0-1.33.931-1.911 2.235-1.911 1.038 0 1.628.565 1.894.934H.11v-.784h1.058c-.026.177-.053.492-.053 1.191v2.519c0 1.655-.698 2.528-2.445 2.528a3.853 3.853 0 0 1-2.006-.573l.061-.952" clip-path="url(#y)" style="fill-opacity:1;fill-rule:nonzero;stroke:none" transform="matrix(.73757 0 0 -.73757 83.24 39.29)"/>
  <path d="M385.466 292.255h1.121v-8.96h-1.121z" clip-path="url(#z)" style="fill-opacity:1;fill-rule:nonzero;stroke:none" transform="matrix(.73757 0 0 -.73757 -198.738 249.985)"/>
  <path d="M0 0c0-2.34-1.18-3.604-3.238-3.604-2.055 0-3.238 1.264-3.238 3.604v4.88h1.195V.151c0-1.601.506-2.7 2.043-2.7 1.541 0 2.045 1.099 2.045 2.7V4.88H0V0" clip-path="url(#A)" style="fill-opacity:1;fill-rule:nonzero;stroke:none" transform="matrix(.73757 0 0 -.73757 94.983 38.486)"/>
  <path d="M0 0h1.096v-.969h.017C1.447-.27 2.266.151 3.107.151c1.579 0 2.284-.988 2.284-2.621v-3.617H4.267v3.156c0 1.412-.31 2.103-1.285 2.163-1.277 0-1.857-1.018-1.857-2.506v-2.813H0V0" clip-path="url(#B)" style="fill-opacity:1;fill-rule:nonzero;stroke:none" transform="matrix(.73757 0 0 -.73757 96.477 36.543)"/>
  <path d="M407.698 289.386h1.123v-6.089h-1.123zm-.068 2.626h1.269v-1.268h-1.269z" clip-path="url(#C)" style="fill-opacity:1;fill-rule:nonzero;stroke:none" transform="matrix(.73757 0 0 -.73757 -198.738 249.985)"/>
  <path d="M0 0h-1.334l-2.182 6.087h1.231l1.644-4.974h.019l1.684 4.974h1.129z" clip-path="url(#D)" style="fill-opacity:1;fill-rule:nonzero;stroke:none" transform="matrix(.73757 0 0 -.73757 106.3 41.033)"/>
  <path d="M0 0c.088.782.541 1.687 1.646 1.687.963 0 1.512-.766 1.512-1.687Zm3.887-2.256c-.276-.231-1.139-.617-1.872-.617A2.005 2.005 0 0 0 0-.839h4.357c0 1.966-.662 3.444-2.685 3.444-1.732 0-2.867-1.277-2.867-3.084 0-1.99.996-3.305 3.162-3.305 1.004 0 1.488.247 1.92.395v1.133" clip-path="url(#E)" style="fill-opacity:1;fill-rule:nonzero;stroke:none" transform="matrix(.73757 0 0 -.73757 109.295 38.353)"/>
  <path d="M0 0h1.048v-.941h.03c.301.633.947 1.092 1.588 1.092.324 0 .504-.04.738-.093v-.999c-.196.086-.428.104-.613.104-1.013 0-1.67-.949-1.67-2.49v-2.76H0V0" clip-path="url(#F)" style="fill-opacity:1;fill-rule:nonzero;stroke:none" transform="matrix(.73757 0 0 -.73757 113.615 36.543)"/>
  <path d="M0 0c.436-.287 1.066-.434 1.395-.434.502 0 1.147.224 1.147.875 0 1.115-2.64 1.012-2.64 2.723 0 1.263.942 1.88 2.139 1.88.533 0 .963-.116 1.41-.233l-.105-.991c-.25.158-.907.307-1.18.307-.57 0-1.073-.229-1.073-.732 0-1.24 2.636-.892 2.636-2.829 0-1.306-1.03-1.911-2.129-1.911-.567 0-1.147.07-1.671.329L0 0" clip-path="url(#G)" style="fill-opacity:1;fill-rule:nonzero;stroke:none" transform="matrix(.73757 0 0 -.73757 116.711 40.153)"/>
  <path d="M432.933 289.386h1.117v-6.089h-1.117zm-.081 2.626h1.263v-1.268h-1.263z" clip-path="url(#H)" style="fill-opacity:1;fill-rule:nonzero;stroke:none" transform="matrix(.73757 0 0 -.73757 -198.738 249.985)"/>
  <path d="M0 0h-1.605v-3.33c0-.709.421-1.095.949-1.095.342 0 .592.115.763.223v-.966a3.327 3.327 0 0 0-.956-.166c-1.165 0-1.882.551-1.882 1.771V0h-1.365v.904h1.365v1.414l1.126.359V.904H0V0" clip-path="url(#I)" style="fill-opacity:1;fill-rule:nonzero;stroke:none" transform="matrix(.73757 0 0 -.73757 125.3 37.209)"/>
  <path d="M0 0c.141-.045.326-.09.523-.09.998 0 1.346 1.383 1.346 1.502 0 .136-.154.441-.228.645L-.427 7.74H.809l1.636-5.044h.022L4.133 7.74h1.134L3.023 1.518C2.617.356 2.162-.999.689-.999c-.363 0-.566.051-.772.084L0 0" clip-path="url(#J)" style="fill-opacity:1;fill-rule:nonzero;stroke:none" transform="matrix(.73757 0 0 -.73757 126.014 42.252)"/>
  <path d="M0 0c0 1.159.694 2.289 1.905 2.289C3.102 2.289 3.8 1.159 3.8 0c0-1.089-.576-2.288-1.895-2.288C.582-2.288 0-1.089 0 0m-1.202 0c0-1.745 1.265-3.19 3.107-3.19 1.824 0 3.088 1.445 3.088 3.19 0 1.856-1.23 3.19-3.088 3.19C.044 3.19-1.202 1.856-1.202 0" clip-path="url(#K)" style="fill-opacity:1;fill-rule:nonzero;stroke:none" transform="matrix(.73757 0 0 -.73757 53.255 49.2)"/>
  <path d="M0 0h-1.43v.914H0v.563c0 1.475.385 2.447 2.043 2.447.281 0 .52-.039.75-.068l-.048-.904c-.132.04-.344.069-.541.069-.968 0-1.083-.621-1.083-1.453V.914h1.612V0H1.121v-5.179H0V0" clip-path="url(#L)" style="fill-opacity:1;fill-rule:nonzero;stroke:none" transform="matrix(.73757 0 0 -.73757 58.59 47.626)"/>
  <path d="M0 0c-.612.233-.943.348-1.576.348-.661 0-1.44-.237-1.44-1.111 0-1.602 3.573-1.235 3.573-3.981 0-1.772-1.369-2.484-3.047-2.484-.579 0-1.152.165-1.704.345l.12 1.112c.4-.165 1.124-.408 1.732-.408.68 0 1.638.389 1.638 1.363 0 1.872-3.587 1.341-3.587 3.944 0 1.484 1.17 2.273 2.673 2.273a5.75 5.75 0 0 0 1.781-.299L0 0" clip-path="url(#M)" style="fill-opacity:1;fill-rule:nonzero;stroke:none" transform="matrix(.73757 0 0 -.73757 66.556 46.222)"/>
  <path d="M361.906 275.271h1.118v-6.093h-1.118zm-.071 2.622h1.269v-1.264h-1.269z" clip-path="url(#N)" style="fill-opacity:1;fill-rule:nonzero;stroke:none" transform="matrix(.73757 0 0 -.73757 -198.738 249.985)"/>
  <path d="M0 0h1.082v-.968h.029C1.437-.283 2.259.144 3.088.144c1.59 0 2.301-.978 2.301-2.628v-3.609H4.255v3.148c0 1.424-.311 2.115-1.288 2.187-1.278 0-1.85-1.029-1.85-2.515v-2.82H0V0" clip-path="url(#O)" style="fill-opacity:1;fill-rule:nonzero;stroke:none" transform="matrix(.73757 0 0 -.73757 70.54 46.952)"/>
  <path d="M0 0c-1.051 0-1.691 1.008-1.691 2.16 0 1.039.56 2.269 1.691 2.269 1.196 0 1.775-1.088 1.775-2.361C1.775.931 1.047 0 0 0m2.901 5.188H1.865v-.914h-.024C1.508 4.933.912 5.332-.17 5.332c-1.836 0-2.717-1.678-2.717-3.246 0-1.564.86-2.99 2.604-2.99.777 0 1.56.308 2.034.951h.024v-.609c0-1.281-.697-2.082-1.88-2.082-.823 0-1.34.163-2.206.541l-.115-1.028c.981-.345 1.541-.431 2.19-.431 2.181 0 3.137 1.081 3.137 2.919v5.831" clip-path="url(#P)" style="fill-opacity:1;fill-rule:nonzero;stroke:none" transform="matrix(.73757 0 0 -.73757 77.751 50.779)"/>
  <path d="M0 0c0-.907-.59-1.608-1.697-1.608-.522 0-1.135.35-1.135.994 0 1.075 1.5 1.176 2.108 1.176.248 0 .482-.024.724-.024zm-3.27 2.344a2.902 2.902 0 0 0 1.764.625C-.385 2.969 0 2.421 0 1.372c-.439.025-.754.025-1.198.025-1.161 0-2.833-.48-2.833-2.011 0-1.323.922-1.897 2.242-1.897 1.016 0 1.617.567 1.887.936h.017v-.791h1.047c-.021.184-.043.502-.043 1.201v2.518c0 1.662-.711 2.516-2.451 2.516a3.88 3.88 0 0 1-2.003-.57l.065-.955" clip-path="url(#Q)" style="fill-opacity:1;fill-rule:nonzero;stroke:none" transform="matrix(.73757 0 0 -.73757 83.973 49.7)"/>
  <path d="M0 0c.016-.96-.484-2.313-1.693-2.313-1.258 0-1.787 1.258-1.787 2.273 0 1.137.587 2.303 1.8 2.303C-.461 2.263.016 1.097 0 0m-4.602-5.575h1.122v3.344h.018c.353-.56.954-.982 2.04-.982 1.828 0 2.609 1.623 2.609 3.29 0 1.642-.865 3.089-2.621 3.089-1.084 0-1.771-.556-2.07-1.004h-.021v.86h-1.077v-8.597" clip-path="url(#R)" style="fill-opacity:1;fill-rule:nonzero;stroke:none" transform="matrix(.73757 0 0 -.73757 89.595 49.181)"/>
  <path d="M0 0c0 1.159.701 2.289 1.906 2.289 1.198 0 1.903-1.13 1.903-2.289 0-1.089-.584-2.288-1.903-2.288C.582-2.288 0-1.089 0 0m-1.193 0c0-1.745 1.259-3.19 3.099-3.19C3.74-3.19 4.999-1.745 4.999 0c0 1.856-1.235 3.19-3.093 3.19C.043 3.19-1.193 1.856-1.193 0" clip-path="url(#S)" style="fill-opacity:1;fill-rule:nonzero;stroke:none" transform="matrix(.73757 0 0 -.73757 92.165 49.2)"/>
  <path d="M0 0h1.05v-.955h.029c.303.647.936 1.099 1.592 1.099.33 0 .502-.041.747-.079v-1.02a1.607 1.607 0 0 1-.633.121c-1.007 0-1.66-.953-1.66-2.489v-2.77H0V0" clip-path="url(#T)" style="fill-opacity:1;fill-rule:nonzero;stroke:none" transform="matrix(.73757 0 0 -.73757 96.963 46.952)"/>
  <path d="M0 0c.082.775.547 1.695 1.631 1.695.973 0 1.527-.776 1.527-1.695Zm3.891-2.267c-.278-.225-1.147-.615-1.885-.615A2.006 2.006 0 0 0 0-.842h4.346c0 1.958-.656 3.439-2.695 3.439-1.708 0-2.844-1.285-2.844-3.089 0-1.975.996-3.292 3.155-3.292.999 0 1.495.234 1.929.396v1.121" clip-path="url(#U)" style="fill-opacity:1;fill-rule:nonzero;stroke:none" transform="matrix(.73757 0 0 -.73757 100.973 48.761)"/>
  <path d="M0 0c2.282-2.109 6.788-4.032 12.305-4.118 4.819-.081 8.698 1.369 8.944 5.376C21.766 9.921-.443 6.452.422 21.07c.424 7.315 7.695 9.738 15.517 9.604 4.244-.07 8.471-1.074 10.799-2.254l.004-5.196c-2.834 1.943-6.777 3.175-10.041 3.238-4.969.088-8.924-.824-8.99-4.453-.125-7.583 22.275-5.764 21.416-20.264-.474-8.159-8.416-10.662-16.719-10.516-4.777.075-9.447 1.04-12.4 2.546L0 0" clip-path="url(#V)" style="fill-opacity:1;fill-rule:nonzero;stroke:none" transform="matrix(.73757 0 0 -.73757 109.687 22.628)"/>
  <path d="M0 0c-10.317 0-16.252 4.631-16.252 14.162v24.194h7.728V14.162c0-5.92 2.843-9.517 8.524-9.517 5.666 0 8.514 3.597 8.514 9.517l.004 24.194h7.736V14.162C16.254 4.631 10.313 0 0 0" clip-path="url(#W)" style="fill-opacity:1;fill-rule:nonzero;stroke:none" transform="matrix(.73757 0 0 -.73757 94.192 29.127)"/>
  <path d="M0 0v-27.247l-17.725 25.32A4.643 4.643 0 0 1-21.494 0h-5.863v-37.161h5.156V-9.89l17.696-25.242a4.652 4.652 0 0 1 3.831-2.029h5.826V0H0" clip-path="url(#X)" style="fill-opacity:1;fill-rule:nonzero;stroke:none" transform="matrix(.73757 0 0 -.73757 72.932 .837)"/>
  <path d="M464.981 337.983h1.121v-80.152h-1.121z" clip-path="url(#Y)" style="fill-opacity:1;fill-rule:nonzero;stroke:none" transform="matrix(.73757 0 0 -.73757 -198.738 249.985)"/>
</svg>
