<?xml version="1.0" encoding="UTF-8" standalone="no"?>
<svg
   id="nusllogo"
   viewBox="0 0 279 60"
   version="1.1"
   sodipodi:docname="NUSLlogoL.svg"
   inkscape:version="1.3.2 (091e20e, 2023-11-25)"
   xml:space="preserve"
   width="279"
   height="60"
   xmlns:inkscape="http://www.inkscape.org/namespaces/inkscape"
   xmlns:sodipodi="http://sodipodi.sourceforge.net/DTD/sodipodi-0.dtd"
   xmlns="http://www.w3.org/2000/svg"
   xmlns:svg="http://www.w3.org/2000/svg"><sodipodi:namedview
     id="namedview102"
     pagecolor="#ffffff"
     bordercolor="#000000"
     borderopacity="0.25"
     inkscape:showpageshadow="2"
     inkscape:pageopacity="0.0"
     inkscape:pagecheckerboard="0"
     inkscape:deskcolor="#d1d1d1"
     inkscape:zoom="3.0029812"
     inkscape:cx="158.34265"
     inkscape:cy="61.105944"
     inkscape:window-width="1840"
     inkscape:window-height="802"
     inkscape:window-x="63"
     inkscape:window-y="82"
     inkscape:window-maximized="0"
     inkscape:current-layer="nusllogo" /><defs
     id="defs51"><clipPath
       id="a"
       clipPathUnits="userSpaceOnUse"><path
         d="m -326.757,296.403 h 841.89 v -595.28 h -841.89 z"
         id="path1" /></clipPath><clipPath
       id="b"
       clipPathUnits="userSpaceOnUse"><path
         d="m -289.853,291.88 h 841.89 V -303.4 h -841.89 z"
         id="path2" /></clipPath><clipPath
       id="c"
       clipPathUnits="userSpaceOnUse"><path
         d="m -292.529,293.112 h 841.89 v -595.28 h -841.89 z"
         id="path3" /></clipPath><clipPath
       id="d"
       clipPathUnits="userSpaceOnUse"><path
         d="m -322.687,319.207 h 841.89 v -595.28 h -841.89 z"
         id="path4" /></clipPath><clipPath
       id="e"
       clipPathUnits="userSpaceOnUse"><path
         d="m -285.616,265.469 h 841.89 v -595.28 h -841.89 z"
         id="path5" /></clipPath><clipPath
       id="f"
       clipPathUnits="userSpaceOnUse"><path
         d="m -296.402,265.162 h 841.89 v -595.28 h -841.89 z"
         id="path6" /></clipPath><clipPath
       id="g"
       clipPathUnits="userSpaceOnUse"><path
         d="m -483.712,274.428 h 841.89 v -595.28 h -841.89 z"
         id="path7" /></clipPath><clipPath
       id="h"
       clipPathUnits="userSpaceOnUse"><path
         d="m -514.816,284.532 h 841.89 v -595.28 h -841.89 z"
         id="path8" /></clipPath><clipPath
       id="i"
       clipPathUnits="userSpaceOnUse"><path
         d="m -526.87,277.022 h 841.89 v -595.28 h -841.89 z"
         id="path9" /></clipPath><clipPath
       id="j"
       clipPathUnits="userSpaceOnUse"><path
         d="m -483.712,304.084 h 841.89 v -595.28 h -841.89 z"
         id="path10" /></clipPath><clipPath
       id="k"
       clipPathUnits="userSpaceOnUse"><path
         d="M 0,595.28 H 841.89 V 0 H 0 Z"
         id="path11" /></clipPath><clipPath
       id="l"
       clipPathUnits="userSpaceOnUse"><path
         d="m -508.086,310.308 h 841.89 v -595.28 h -841.89 z"
         id="path12" /></clipPath><clipPath
       id="m"
       clipPathUnits="userSpaceOnUse"><path
         d="m -516.54,308.727 h 841.89 v -595.28 h -841.89 z"
         id="path13" /></clipPath><clipPath
       id="n"
       clipPathUnits="userSpaceOnUse"><path
         d="m -533.053,315.324 h 841.89 v -595.28 h -841.89 z"
         id="path14" /></clipPath><clipPath
       id="o"
       clipPathUnits="userSpaceOnUse"><path
         d="m -539.02,308.727 h 841.89 v -595.28 h -841.89 z"
         id="path15" /></clipPath><clipPath
       id="p"
       clipPathUnits="userSpaceOnUse"><path
         d="M 0,595.28 H 841.89 V 0 H 0 Z"
         id="path16" /></clipPath><clipPath
       id="q"
       clipPathUnits="userSpaceOnUse"><path
         d="M -562.89,313.816 H 279 v -595.28 h -841.89 z"
         id="path17" /></clipPath><clipPath
       id="r"
       clipPathUnits="userSpaceOnUse"><path
         d="m -567.574,318.856 h 841.89 v -595.28 h -841.89 z"
         id="path18" /></clipPath><clipPath
       id="s"
       clipPathUnits="userSpaceOnUse"><path
         d="M -340.96,303.65 H 500.93 V -291.63 H -340.96 Z"
         id="path19" /></clipPath><clipPath
       id="t"
       clipPathUnits="userSpaceOnUse"><path
         d="m -353.099,309.619 h 841.89 v -595.28 h -841.89 z"
         id="path20" /></clipPath><clipPath
       id="u"
       clipPathUnits="userSpaceOnUse"><path
         d="m -359.364,306.799 h 841.89 v -595.28 h -841.89 z"
         id="path21" /></clipPath><clipPath
       id="v"
       clipPathUnits="userSpaceOnUse"><path
         d="M 0,595.28 H 841.89 V 0 H 0 Z"
         id="path22" /></clipPath><clipPath
       id="w"
       clipPathUnits="userSpaceOnUse"><path
         d="m -364.872,308.944 h 841.89 v -595.28 h -841.89 z"
         id="path23" /></clipPath><clipPath
       id="x"
       clipPathUnits="userSpaceOnUse"><path
         d="m -371.389,305.896 h 841.89 v -595.28 h -841.89 z"
         id="path24" /></clipPath><clipPath
       id="y"
       clipPathUnits="userSpaceOnUse"><path
         d="m -382.308,309.619 h 841.89 v -595.28 h -841.89 z"
         id="path25" /></clipPath><clipPath
       id="z"
       clipPathUnits="userSpaceOnUse"><path
         d="M 0,595.28 H 841.89 V 0 H 0 Z"
         id="path26" /></clipPath><clipPath
       id="A"
       clipPathUnits="userSpaceOnUse"><path
         d="m -398.228,308.53 h 841.89 v -595.28 h -841.89 z"
         id="path27" /></clipPath><clipPath
       id="B"
       clipPathUnits="userSpaceOnUse"><path
         d="m -400.253,305.896 h 841.89 v -595.28 h -841.89 z"
         id="path28" /></clipPath><clipPath
       id="C"
       clipPathUnits="userSpaceOnUse"><path
         d="M 0,595.28 H 841.89 V 0 H 0 Z"
         id="path29" /></clipPath><clipPath
       id="D"
       clipPathUnits="userSpaceOnUse"><path
         d="m -413.571,311.983 h 841.89 v -595.28 h -841.89 z"
         id="path30" /></clipPath><clipPath
       id="E"
       clipPathUnits="userSpaceOnUse"><path
         d="m -417.632,308.35 h 841.89 v -595.28 h -841.89 z"
         id="path31" /></clipPath><clipPath
       id="F"
       clipPathUnits="userSpaceOnUse"><path
         d="M -423.49,305.896 H 418.4 v -595.28 h -841.89 z"
         id="path32" /></clipPath><clipPath
       id="G"
       clipPathUnits="userSpaceOnUse"><path
         d="m -427.687,310.79 h 841.89 v -595.28 h -841.89 z"
         id="path33" /></clipPath><clipPath
       id="H"
       clipPathUnits="userSpaceOnUse"><path
         d="M 0,595.28 H 841.89 V 0 H 0 Z"
         id="path34" /></clipPath><clipPath
       id="I"
       clipPathUnits="userSpaceOnUse"><path
         d="m -439.331,306.799 h 841.89 v -595.28 h -841.89 z"
         id="path35" /></clipPath><clipPath
       id="J"
       clipPathUnits="userSpaceOnUse"><path
         d="m -440.3,313.636 h 841.89 v -595.28 H -440.3 Z"
         id="path36" /></clipPath><clipPath
       id="K"
       clipPathUnits="userSpaceOnUse"><path
         d="m -341.652,323.055 h 841.89 v -595.28 h -841.89 z"
         id="path37" /></clipPath><clipPath
       id="L"
       clipPathUnits="userSpaceOnUse"><path
         d="m -348.886,320.923 h 841.89 v -595.28 h -841.89 z"
         id="path38" /></clipPath><clipPath
       id="M"
       clipPathUnits="userSpaceOnUse"><path
         d="m -359.687,319.018 h 841.89 v -595.28 h -841.89 z"
         id="path39" /></clipPath><clipPath
       id="N"
       clipPathUnits="userSpaceOnUse"><path
         d="M 0,595.28 H 841.89 V 0 H 0 Z"
         id="path40" /></clipPath><clipPath
       id="O"
       clipPathUnits="userSpaceOnUse"><path
         d="m -365.089,320.008 h 841.89 v -595.28 h -841.89 z"
         id="path41" /></clipPath><clipPath
       id="P"
       clipPathUnits="userSpaceOnUse"><path
         d="m -374.864,325.197 h 841.89 v -595.28 h -841.89 z"
         id="path42" /></clipPath><clipPath
       id="Q"
       clipPathUnits="userSpaceOnUse"><path
         d="m -383.3,323.735 h 841.89 v -595.28 H -383.3 Z"
         id="path43" /></clipPath><clipPath
       id="R"
       clipPathUnits="userSpaceOnUse"><path
         d="m -390.923,323.031 h 841.89 v -595.28 h -841.89 z"
         id="path44" /></clipPath><clipPath
       id="S"
       clipPathUnits="userSpaceOnUse"><path
         d="m -394.407,323.055 h 841.89 v -595.28 h -841.89 z"
         id="path45" /></clipPath><clipPath
       id="T"
       clipPathUnits="userSpaceOnUse"><path
         d="m -400.912,320.008 h 841.89 v -595.28 h -841.89 z"
         id="path46" /></clipPath><clipPath
       id="U"
       clipPathUnits="userSpaceOnUse"><path
         d="m -406.349,322.462 h 841.89 v -595.28 h -841.89 z"
         id="path47" /></clipPath><clipPath
       id="V"
       clipPathUnits="userSpaceOnUse"><path
         d="m -418.163,287.03 h 841.89 v -595.28 h -841.89 z"
         id="path48" /></clipPath><clipPath
       id="W"
       clipPathUnits="userSpaceOnUse"><path
         d="m -397.155,295.841 h 841.89 v -595.28 h -841.89 z"
         id="path49" /></clipPath><clipPath
       id="X"
       clipPathUnits="userSpaceOnUse"><path
         d="m -368.331,257.485 h 841.89 v -595.28 h -841.89 z"
         id="path50" /></clipPath><clipPath
       id="Y"
       clipPathUnits="userSpaceOnUse"><path
         d="M 0,595.28 H 841.89 V 0 H 0 Z"
         id="path51" /></clipPath><clipPath
       id="Y-7"
       clipPathUnits="userSpaceOnUse"><path
         d="M 0,595.28 H 841.89 V 0 H 0 Z"
         id="path51-3" /></clipPath><clipPath
       id="Y-9"
       clipPathUnits="userSpaceOnUse"><path
         d="M 0,595.28 H 841.89 V 0 H 0 Z"
         id="path51-9" /></clipPath></defs><path
     d="m 0,0 c -1.65,-2.018 -6.047,-2.408 -8.158,-2.594 l -0.363,-0.034 0.117,-0.348 c 0.254,-0.742 0.566,-2.031 0.617,-3.962 l -0.002,-1.471 c -0.029,-1.955 -0.062,-4.17 0.924,-5.33 0.613,-0.721 1.045,-0.94 1.328,-1.084 0.244,-0.125 0.26,-0.131 0.283,-0.399 0.018,-0.197 -0.176,-0.486 -0.4,-0.82 l -0.381,-0.6 c -0.684,-1.187 -1.738,-3.406 -2.454,-5.162 -0.247,-0.597 -0.895,-2.099 -1.01,-2.285 -0.271,-0.437 -0.611,-0.654 -1.226,-0.765 l -1.183,-0.311 c -0.756,-0.217 -1.932,-0.555 -2.518,-0.486 a 0.609,0.609 0 0 1 0.26,0.39 c 0.064,0.407 -0.127,0.672 -0.127,0.672 0,0 -0.566,-0.058 -1.019,-0.279 a 6.089,6.089 0 0 0 -0.112,0.154 c 0.1,0.049 0.231,0.164 0.272,0.414 0.06,0.379 -0.123,0.678 -0.123,0.678 0,0 -0.362,-0.035 -0.739,-0.164 -0.015,0.033 -0.031,0.06 -0.045,0.086 a 0.882,0.882 0 0 1 0.329,0.365 c 0.087,0.182 0.046,0.414 0.003,0.564 0.323,0.215 0.821,0.313 1.459,0.286 0.518,-0.026 1.92,0.048 2.5,0.08 l 0.161,0.013 0.076,0.141 c 0.244,0.467 0.859,1.67 1.271,2.797 0.629,1.711 0.987,3.25 0.991,3.266 l 0.033,0.146 -3.02,3.303 c -1.195,1.33 -1.576,1.994 -1.58,2 l -0.014,0.021 -0.017,0.024 c -0.004,0.006 -0.487,0.578 -0.973,1.349 l -0.221,0.354 c -0.432,0.691 -0.841,1.345 -1.263,1.769 -0.483,0.483 -1.36,1.119 -1.397,1.147 l -0.415,-0.377 0.702,-1.213 -12.065,-3.531 0.076,-0.27 c 0.12,-0.428 0.269,-1.103 0.269,-1.406 a 0.57,0.57 0 0 0 -0.006,-0.088 c -0.143,-0.461 -3.665,-6.221 -4.857,-8.127 -0.521,-0.84 -0.736,-1.332 -0.995,-2.062 l -0.11,-0.325 c -0.082,-0.246 -0.174,-0.525 -0.231,-0.619 -0.276,-0.455 -0.629,-0.674 -1.263,-0.793 l -1.164,-0.287 c -0.921,-0.244 -2.559,-0.68 -3.141,-0.498 a 0.433,0.433 0 0 1 0.207,0.295 c 0.131,0.539 -0.07,0.799 -0.07,0.799 0,0 -0.516,-0.053 -0.959,-0.248 a 10.91,10.91 0 0 0 -0.124,0.174 0.578,0.578 0 0 1 0.25,0.3 c 0.178,0.422 0.005,0.774 0.005,0.774 0,0 -0.421,-0.01 -0.838,-0.131 -0.022,0.045 -0.04,0.086 -0.055,0.119 a 0.732,0.732 0 0 1 0.363,0.32 c 0.099,0.168 0.079,0.393 0.049,0.553 0.336,0.217 0.84,0.315 1.484,0.283 0.465,-0.019 1.93,0.034 2.553,0.067 l 0.149,0.01 0.078,0.125 c 0.235,0.38 0.715,1.33 1.305,3.429 0.431,1.537 0.85,3.405 1.088,4.514 0.588,0.469 1.674,2.068 1.869,2.453 0.776,1.543 0.23,2.082 0.569,3.014 -0.094,-0.897 0.991,-1.145 1.183,-1.934 1.937,2.611 1.016,3.59 1.276,5.219 0.372,-0.557 1.041,-0.817 1.909,-0.924 -0.162,0.867 -0.013,1.457 0.305,2.147 0.281,0.603 1.042,1.792 1.269,2.465 0.22,0.651 0.396,1.153 0.465,1.594 1.08,-0.312 2.463,-0.576 3.928,-0.742 3.298,-0.377 5.28,-0.231 7.196,-0.084 1.024,0.078 1.99,0.152 3.135,0.144 a 15.038,15.038 0 0 0 3.187,-0.349 l 0.041,-0.014 0.052,0.002 c 2.366,0.131 6.773,0.369 8.142,2.037 0.383,0.473 0.478,1.035 0.287,1.725 -0.154,0.564 -0.432,0.949 -0.848,1.168 -1.539,0.82 -4.752,-0.256 -5.961,-0.66 L -7.508,2.947 c -1.306,-0.435 -1.984,-0.607 -4.26,-1.008 -2.337,-0.414 -7.759,-0.773 -9.608,0.758 -0.596,0.491 -0.93,1.117 -0.992,1.862 -0.084,0.994 0.164,1.815 0.738,2.44 0.703,0.763 1.924,1.089 4.077,1.089 0.84,0 2.291,-0.065 4.135,-0.185 l 0.304,-0.324 -0.312,-0.282 c -1.472,0.026 -4.14,0.067 -4.14,0.067 -1.777,0 -2.81,-0.264 -3.35,-0.854 -0.312,-0.338 -0.606,-1.176 -0.55,-1.877 0.037,-0.426 0.343,-0.987 0.697,-1.278 1.757,-1.455 6.706,-0.878 8.751,-0.564 2.009,0.305 2.539,0.471 4.469,1.131 2.266,0.771 4.842,1.512 6.719,0.515 C -0.174,4.088 0.256,3.703 0.512,2.777 0.801,1.723 0.625,0.762 0,0 m -15.486,-13.88 c 0,-0.34 0.068,-0.658 0.241,-0.924 0.227,-0.353 0.339,-0.556 0.339,-0.728 0,-0.201 -0.153,-0.356 -0.457,-0.637 -0.332,-0.309 -0.783,-1.23 -1.307,-2.293 -0.402,-0.818 -0.818,-1.662 -1.185,-2.242 -0.148,-0.233 -0.318,-0.625 -0.467,-0.975 l -0.265,-0.572 c -0.266,-0.437 -0.61,-0.652 -1.223,-0.768 l -1.193,-0.31 c -0.823,-0.236 -2.143,-0.617 -2.654,-0.453 0.09,0.064 0.187,0.176 0.224,0.367 0.073,0.359 -0.144,0.689 -0.144,0.689 0,0 -0.462,-0.046 -0.885,-0.22 -0.027,0.035 -0.052,0.076 -0.078,0.111 0.089,0.07 0.215,0.205 0.282,0.465 a 0.774,0.774 0 0 1 -0.123,0.611 c 0,0 -0.359,-0.031 -0.734,-0.16 l -0.049,0.1 a 0.596,0.596 0 0 1 0.304,0.377 0.828,0.828 0 0 1 -0.015,0.463 c 0.319,0.248 0.84,0.365 1.522,0.33 0.624,-0.03 2.535,0.087 2.615,0.091 l 0.176,0.012 1.211,2.846 0.205,0.469 c 0.389,0.877 0.701,1.585 0.701,2.082 0,0.212 -0.056,0.382 -0.187,0.515 -0.801,0.803 -1.795,2.096 -2.461,3.037 -0.127,0.18 -0.401,0.637 -0.666,1.09 0.761,0.108 1.609,0.098 2.613,-0.123 -0.021,0.451 -0.129,0.797 -0.6,1.072 1.526,0.461 3.006,0.418 3.642,0.401 0.043,-0.076 0.088,-0.147 0.131,-0.205 0.307,-0.403 0.799,-0.817 0.991,-0.953 0.041,-0.032 0.111,-0.075 0.189,-0.127 0.148,-0.205 0.27,-0.358 0.355,-0.463 -0.297,-0.492 -1.048,-1.852 -1.048,-2.975 m -22.077,10.404 c -0.162,0.375 -0.207,0.733 -0.354,1.429 -0.069,0.018 -0.989,0.635 -0.989,0.635 0,0.008 0.007,1.83 0.004,1.822 10e-4,0 -2.311,2.822 -2.324,2.801 l 0.794,1.408 0.009,0.022 c -0.358,0.248 -1.214,0.959 -0.755,1.822 0.485,0.911 1.599,0.541 1.929,0.403 0.046,0.047 2.514,1.12 2.547,1.102 -0.022,0.015 0.96,-1.141 0.962,-1.141 -0.002,0 0.986,1.156 0.963,1.141 0.032,0.018 2.5,-1.055 2.546,-1.102 0.331,0.138 1.445,0.508 1.931,-0.403 0.457,-0.863 -0.4,-1.574 -0.758,-1.822 l 0.011,-0.022 c 0,0 0.803,-1.426 0.795,-1.408 -0.013,0.021 -2.327,-2.801 -2.325,-2.801 -0.002,-0.006 0,-1.826 -0.002,-1.822 0,0 -0.914,-0.617 -0.984,-0.635 -0.147,-0.696 -0.192,-1.054 -0.354,-1.429 -0.051,-0.121 -0.933,-0.378 -1.788,-0.394 h -0.069 c -0.857,0.016 -1.738,0.273 -1.789,0.394 m -5.804,-6.17 c -0.534,0.594 -2.609,4.165 -3.982,6.528 -1.035,1.784 -1.407,2.415 -1.509,2.528 -0.272,0.311 -0.74,1.152 -1.136,2.051 l -0.028,0.059 -1.251,1.035 c -0.358,0.328 -0.549,0.808 -0.492,1.152 0.117,-0.059 0.295,-0.109 0.47,-0.021 0.461,0.236 0.472,0.566 0.472,0.566 0,0 -0.388,0.422 -0.837,0.654 -0.069,0.354 -0.007,0.655 0.127,0.915 0.046,-0.16 0.041,-0.27 0.041,-0.27 0,0 0.247,-0.226 0.567,-0.172 0.444,0.08 0.573,0.434 0.573,0.434 0,0 -0.245,0.398 -0.586,0.707 l 0.086,0.07 0.048,0.039 c 0.04,0.034 0.088,0.065 0.137,0.098 a 0.761,0.761 0 0 1 0.337,-0.102 c 0.581,-0.027 0.635,0.319 0.635,0.319 l -10e-4,0.002 c 0.103,-0.01 0.21,-0.024 0.328,-0.051 0.169,-0.082 0.41,-0.693 0.718,-1.822 L -48.541,4.687 -48.332,4 c 0.467,-1.535 0.704,-2.279 0.862,-2.488 0.666,-0.881 1.992,-1.951 3.201,-2.828 l 0.181,-0.534 c 0.227,-0.671 0.989,-1.86 1.268,-2.465 0.319,-0.688 0.469,-1.282 0.305,-2.149 0.869,0.11 1.538,0.369 1.909,0.926 0.19,-1.188 -0.243,-2.031 0.256,-3.412 -1.398,-0.557 -2.811,-0.887 -3.017,-0.696 M 1.059,2.92 C 0.752,4.041 0.187,4.541 -0.566,4.939 -2.646,6.042 -5.357,5.27 -7.738,4.459 -9.53,3.844 -10.074,3.662 -12.107,3.348 c -1.538,-0.235 -6.678,-0.899 -8.303,0.443 -0.232,0.191 -0.467,0.615 -0.49,0.887 -0.047,0.561 0.207,1.229 0.402,1.442 0.411,0.449 1.368,0.668 2.928,0.668 l 3.978,-0.063 c 0.25,-0.32 0.886,-0.836 2.502,-1.182 2.57,-0.548 5.399,0.346 5.399,0.346 0,0 -0.467,0.09 -0.856,0.383 -0.344,0.258 -0.314,0.645 -0.314,0.645 0,0 0.566,-0.276 1.39,-0.249 1.03,0.028 1.504,0.516 2.463,0.762 0.961,0.242 2.029,0.041 2.029,0.041 0,0 -0.968,1.038 -1.929,1.219 -0.959,0.185 -2.154,-0.062 -2.154,-0.062 0,0 0.298,0.135 0.656,0.458 0.285,0.255 0.344,0.699 0.344,0.699 0,0 -1.149,-0.446 -2.315,-0.386 -1.166,0.06 -1.08,0.481 -3.339,0.543 -1.715,0.045 -3.134,-0.971 -3.72,-1.468 -1.832,0.119 -3.277,0.183 -4.121,0.183 -2.331,0 -3.677,-0.381 -4.499,-1.276 -0.687,-0.746 -0.986,-1.713 -0.886,-2.875 0.076,-0.902 0.478,-1.658 1.196,-2.254 2.176,-1.797 8.01,-1.246 10.072,-0.883 2.313,0.408 3.004,0.588 4.342,1.033 l 0.078,0.022 c 1.035,0.351 4.188,1.4 5.512,0.701 0.267,-0.143 0.451,-0.408 0.562,-0.812 0.051,-0.186 0.076,-0.35 0.076,-0.501 0,-0.275 -0.083,-0.505 -0.253,-0.71 -1.204,-1.473 -5.733,-1.721 -7.698,-1.827 -0.216,0.051 -1.531,0.346 -3.277,0.354 -1.168,0.01 -2.147,-0.066 -3.182,-0.147 -1.89,-0.138 -3.843,-0.285 -7.089,0.084 -1.505,0.17 -2.917,0.448 -3.978,0.762 -0.049,0.401 -0.238,0.783 -0.642,1.24 0.779,-0.252 1.791,0.604 2.075,1.03 -0.003,0.039 -1.383,0.406 -1.465,1.298 -0.003,0.03 0.978,-0.078 1.384,1.267 -0.978,0.527 -0.67,0.724 -1.139,1.382 -0.415,0.579 -1.013,0.872 -1.751,0.854 0.298,0.037 0.326,0 0.65,0.164 0.426,0.211 0.72,0.796 1.141,0.771 -0.85,1.331 -3.133,1.506 -4.081,1.226 0.243,0.302 0.617,0.638 0.621,1.052 -1.261,-0.347 -2.499,0.308 -3.773,0.07 -1.054,-0.195 -1.656,-0.626 -1.986,-1.628 h -0.048 c -0.333,1.002 -0.933,1.433 -1.988,1.628 -1.273,0.238 -2.511,-0.417 -3.774,-0.07 0.006,-0.414 0.379,-0.75 0.62,-1.052 -0.944,0.28 -3.228,0.105 -4.078,-1.226 0.421,0.025 0.715,-0.56 1.139,-0.771 0.373,-0.189 0.448,-0.15 0.651,-0.164 -0.736,0.018 -1.336,-0.275 -1.75,-0.854 -0.472,-0.658 -0.163,-0.855 -1.139,-1.382 0.407,-1.345 1.385,-1.237 1.384,-1.267 -0.082,-0.892 -1.462,-1.259 -1.466,-1.298 0.285,-0.426 1.296,-1.282 2.076,-1.03 -0.639,-0.716 -0.745,-1.265 -0.601,-1.982 -0.993,0.75 -1.972,1.58 -2.494,2.269 -0.121,0.178 -0.51,1.463 -0.769,2.309 l -0.211,0.695 -0.103,0.364 c -0.31,1.145 -0.611,2.102 -1.131,2.227 a 2.528,2.528 0 0 1 -0.768,0.07 c -0.181,0.281 -0.43,0.576 -0.722,0.667 -0.602,0.183 -0.894,0.052 -0.894,0.052 0,0 0.487,-0.348 0.653,-0.711 0.041,-0.092 0.067,-0.18 0.085,-0.258 A 2.465,2.465 0 0 1 -51.167,7.075 L -51.211,7.04 c -0.061,-0.053 -0.145,-0.122 -0.235,-0.204 a 0.673,0.673 0 0 1 -0.124,0.028 c -0.625,0.084 -0.892,-0.1 -0.892,-0.1 0,0 0.339,-0.164 0.591,-0.396 a 1.987,1.987 0 0 1 -0.398,-1.17 c 0,-0.047 0.006,-0.096 0.011,-0.147 -0.597,-0.045 -0.819,-0.262 -0.819,-0.262 0,0 0.581,-0.156 0.861,-0.434 0.031,-0.033 0.06,-0.06 0.083,-0.091 -0.026,-0.034 -0.048,-0.055 -0.048,-0.055 a 1.157,1.157 0 0 1 -0.173,-0.625 c 0,-0.523 0.292,-1.084 0.695,-1.449 l 1.17,-0.971 c 0.425,-0.947 0.893,-1.775 1.201,-2.125 0.097,-0.125 0.751,-1.25 1.444,-2.444 l 0.283,-0.491 c 0.149,-0.728 0.318,-1.64 0.393,-2.355 0.137,-1.289 0.006,-2.728 0.006,-2.728 0,0 0.836,0.042 1.214,0.583 0.007,0.016 0.308,-0.89 0.264,-1.91 -0.033,-0.757 -0.234,-1.802 -0.234,-1.802 0,0 0.813,0.431 1.426,0.972 0.307,0.274 0.62,0.719 0.808,1.018 0.673,-0.432 2.6,0.256 3.56,0.64 0.188,-0.38 0.445,-0.802 0.8,-1.281 0.141,0.578 0.756,0.865 1.041,1.326 h 0.262 c 0.035,-0.63 -0.147,-1.222 0.45,-2.402 0.169,-0.336 0.997,-1.568 1.6,-2.205 -0.228,-1.066 -0.661,-3.016 -1.109,-4.611 -0.512,-1.827 -0.927,-2.731 -1.165,-3.155 -0.686,-0.033 -1.943,-0.076 -2.342,-0.058 -0.955,0.045 -1.663,-0.155 -2.102,-0.594 -0.034,-0.035 -0.058,-0.066 -0.086,-0.1 -0.334,-0.046 -0.716,-0.152 -0.924,-0.388 -0.416,-0.469 -0.419,-0.789 -0.419,-0.789 0,0 0.521,0.3 0.915,0.3 a 0.46,0.46 0 0 0 0.084,-0.007 v -0.079 c 0.005,-0.091 0.06,-0.242 0.147,-0.425 a 0.684,0.684 0 0 1 -0.169,-0.157 c -0.383,-0.5 -0.362,-0.82 -0.362,-0.82 0,0 0.487,0.326 0.88,0.36 0.122,-0.198 0.26,-0.397 0.405,-0.592 -0.017,-0.02 -0.035,-0.041 -0.048,-0.063 -0.346,-0.527 -0.299,-0.847 -0.299,-0.847 0,0 0.386,0.306 0.751,0.406 a 3.95,3.95 0 0 1 0.365,-0.373 c 0.574,-0.506 2.003,-0.178 3.812,0.303 l 1.121,0.277 c 0.793,0.148 1.285,0.461 1.647,1.053 0.086,0.146 0.165,0.377 0.286,0.742 l 0.107,0.316 c 0.249,0.701 0.443,1.149 0.94,1.945 0.016,0.026 0.5,0.805 1.161,1.879 0.585,0.487 1.29,1.053 1.803,1.399 0.782,0.529 2.34,1.322 2.34,1.322 0,0 -0.417,0.678 -1.034,0.768 -0.014,0.002 0.789,0.818 1.46,1.107 0.757,0.33 1.732,0.508 1.732,0.508 0,0 -0.354,0.732 -0.904,1.082 0.228,0.076 0.438,0.211 0.698,0.381 1.317,0.859 2.287,0.83 3.201,0.572 0.037,0.594 -0.113,0.957 -0.629,1.297 a 8.45,8.45 0 0 0 1.354,0.457 c 0.3,-0.52 0.64,-1.086 0.794,-1.303 0.678,-0.961 1.697,-2.283 2.523,-3.115 0.022,-0.018 0.032,-0.057 0.032,-0.107 0,-0.348 -0.424,-1.305 -0.664,-1.852 l -0.207,-0.473 -1.073,-2.523 c -0.484,-0.027 -1.884,-0.104 -2.376,-0.078 -0.932,0.043 -1.622,-0.151 -2.05,-0.578 -0.055,-0.055 -0.102,-0.114 -0.145,-0.166 -0.345,-0.063 -0.761,-0.19 -0.968,-0.452 -0.388,-0.496 -0.372,-0.816 -0.372,-0.816 0,0 0.502,0.328 0.897,0.352 a 0.808,0.808 0 0 0 0.172,-0.006 c 0.016,-0.1 0.074,-0.248 0.163,-0.426 a 0.918,0.918 0 0 1 -0.231,-0.23 c -0.346,-0.526 -0.3,-0.842 -0.3,-0.842 0,0 0.471,0.369 0.864,0.427 a 0.15,0.15 0 0 1 0.042,0.004 9.16,9.16 0 0 1 0.301,-0.435 0.59,0.59 0 0 1 -0.101,-0.121 c -0.346,-0.53 -0.301,-0.848 -0.301,-0.848 0,0 0.451,0.358 0.836,0.426 0.121,-0.139 0.239,-0.262 0.347,-0.356 0.551,-0.488 1.726,-0.197 3.326,0.264 l 1.14,0.299 c 0.774,0.142 1.252,0.451 1.605,1.029 0.003,0.002 0.303,0.647 0.303,0.647 0.141,0.328 0.301,0.699 0.424,0.888 0.186,0.293 0.381,0.647 0.578,1.026 0.268,0.23 0.518,0.437 0.693,0.576 0.512,0.391 1.807,1.101 1.807,1.101 0,0 -0.256,0.571 -0.786,0.625 a 5.16,5.16 0 0 0 1.14,0.944 c 0.443,0.258 1.324,0.406 1.324,0.406 0,0 -0.608,0.516 -1.069,0.719 a 3.16,3.16 0 0 1 -0.658,0.174 c -0.028,0.265 -0.168,0.56 -0.422,0.951 -0.453,0.701 0.212,2.215 0.691,3.066 0.239,-0.338 0.671,-0.898 1.389,-1.701 0,0 2.31,-2.521 2.819,-3.084 -0.1,-0.398 -0.424,-1.658 -0.935,-3.049 -0.37,-1.011 -0.897,-2.064 -1.167,-2.582 -0.554,-0.033 -1.814,-0.097 -2.275,-0.076 -0.932,0.045 -1.623,-0.148 -2.051,-0.578 a 1.664,1.664 0 0 1 -0.18,-0.221 c -0.312,-0.076 -0.652,-0.205 -0.828,-0.441 -0.381,-0.5 -0.356,-0.822 -0.356,-0.822 0,0 0.376,0.357 0.888,0.369 0.023,0.002 0.044,0 0.066,0 0.025,-0.11 0.087,-0.256 0.172,-0.426 a 0.875,0.875 0 0 1 -0.227,-0.227 c -0.344,-0.527 -0.297,-0.843 -0.297,-0.843 0,0 0.469,0.373 0.86,0.425 0.013,0 0.027,0 0.043,0.006 0.121,-0.183 0.252,-0.369 0.386,-0.547 l -0.007,-0.011 c -0.346,-0.524 -0.301,-0.848 -0.301,-0.848 0,0 0.348,0.279 0.695,0.391 0.101,-0.112 0.199,-0.209 0.289,-0.293 0.553,-0.487 1.733,-0.196 3.338,0.265 l 1.131,0.297 c 0.771,0.145 1.253,0.453 1.605,1.031 0.159,0.258 0.86,1.895 1.053,2.368 0.348,0.849 0.738,1.726 1.115,2.529 0.19,0.162 0.37,0.307 0.512,0.404 0.631,0.44 1.983,1.211 1.983,1.211 0,0 -0.27,0.578 -0.788,0.621 -0.007,0.002 0.53,0.516 1.065,0.858 0.496,0.314 1.398,0.496 1.398,0.496 0,0 -0.648,0.49 -1.109,0.693 -0.272,0.117 -0.656,0.193 -0.928,0.233 -0.078,0.386 -0.273,0.513 -0.564,0.662 -0.258,0.13 -0.614,0.31 -1.153,0.941 -0.693,0.82 -0.798,2.379 -0.798,3.934 0,0.343 0.005,0.687 0.009,1.019 l 0.004,1.496 c -0.047,1.756 -0.302,2.979 -0.545,3.787 2.289,0.209 6.485,0.673 8.203,2.773 0.516,0.629 0.778,1.371 0.778,2.176 0,0.357 -0.053,0.734 -0.158,1.111"
     clip-path="url(#a)"
     style="fill-opacity:1;fill-rule:nonzero;stroke:none"
     transform="matrix(0.73757,0,0,-0.73757,42.268,29.541)"
     id="path52" /><path
     d="m 0,0 -0.077,-1.201 -2.07,1.178 z"
     clip-path="url(#b)"
     style="fill-opacity:1;fill-rule:nonzero;stroke:none"
     transform="matrix(0.73757,0,0,-0.73757,15.049,26.205)"
     id="path53" /><path
     d="m 0,0 0.329,-2.875 c 0,0 -1.511,-0.82 -1.585,-0.863 l -0.01,-1.024 c 0.07,-0.052 0.342,-0.256 0.624,-0.377 0.51,-0.215 1.021,-0.088 1.027,-0.088 l 0.129,0.036 -0.11,-0.381 -0.047,-0.01 c -0.023,-0.004 -0.598,-0.107 -1.066,0.033 -0.406,0.123 -0.619,0.278 -0.676,0.322 H -1.63 c -0.057,-0.039 -0.28,-0.199 -0.691,-0.322 -0.467,-0.14 -1.043,-0.037 -1.067,-0.033 l -0.047,0.01 -0.108,0.381 0.129,-0.036 c 0.006,0 0.515,-0.127 1.027,0.088 0.281,0.121 0.555,0.325 0.624,0.377 l -0.005,1.037 -1.58,1.121 c 0,0 2.685,0.004 2.828,0.006 V 1.168 L 1.716,1.186 1.998,1.187 C 1.998,1.187 0.081,0.051 0,0"
     clip-path="url(#c)"
     style="fill-opacity:1;fill-rule:nonzero;stroke:none"
     transform="matrix(0.73757,0,0,-0.73757,17.023,27.114)"
     id="path54" /><path
     d="m 0,0 c -7.59,-11.971 -20.187,-16.34 -21.937,-16.896 -1.744,0.562 -14.301,4.925 -21.887,16.896 -7.607,11.979 -7.884,21.595 -7.884,22.905 0,0.09 0.003,0.143 0.003,0.151 V 36.667 H 7.881 V 23.083 c 0,-0.01 0.004,-0.059 0.004,-0.16 C 7.885,21.581 7.602,11.979 0,0 m -46.768,43.053 v 13.982 l 0.344,0.058 c 0.107,0.021 2.658,0.47 5.702,0.47 2.411,0 4.59,-0.724 5.547,-1.096 0.957,0.372 3.134,1.096 5.548,1.096 3.044,0 5.593,-0.449 5.701,-0.47 l 0.343,-0.058 V 40.816 l -0.505,0.111 c -0.021,0.005 -2.13,0.456 -5.236,0.456 -2.337,0 -4.756,-0.649 -5.708,-0.992 l -0.144,-0.05 -0.142,0.05 c -0.953,0.343 -3.373,0.992 -5.708,0.992 -3.106,0 -5.215,-0.451 -5.237,-0.456 l -0.505,-0.111 z m 37.233,4.733 -0.023,-0.069 A 6.602,6.602 0 0 1 -9.83,46.602 l -0.02,-0.141 -0.123,0.075 a 6.108,6.108 0 0 0 -2.439,2.737 l -0.037,0.081 0.08,0.042 c 0.346,0.172 0.703,0.299 1.062,0.373 l 0.073,0.014 0.033,-0.066 a 4.892,4.892 0 0 1 1.605,-1.889 z m -0.912,3.929 c 2.445,0 4.59,-1.38 5.598,-3.606 l 0.037,-0.083 -0.083,-0.042 a 4.277,4.277 0 0 0 -1.061,-0.373 l -0.073,-0.014 -0.033,0.067 a 4.821,4.821 0 0 1 -4.385,2.765 4.868,4.868 0 0 1 -4.861,-4.863 4.866,4.866 0 0 1 4.861,-4.861 4.87,4.87 0 0 1 2.082,0.478 l 0.064,0.028 0.05,-0.052 c 0.263,-0.301 0.538,-0.573 0.82,-0.8 l 0.109,-0.091 -0.122,-0.067 a 6.145,6.145 0 0 0 -3.003,-0.785 6.158,6.158 0 0 0 -6.15,6.15 6.157,6.157 0 0 0 6.15,6.149 m 5.187,-1.759 -0.064,-0.032 -0.049,0.055 a 6.577,6.577 0 0 1 -0.82,0.801 l -0.109,0.09 0.122,0.069 a 6.165,6.165 0 0 0 2.991,0.776 h 0.003 l 0.651,-0.046 -0.006,-0.093 A 4.298,4.298 0 0 0 -2.746,50.472 L -2.77,50.401 -3.189,50.429 A 4.9,4.9 0 0 1 -5.26,49.956 m -7.7,1.979 c 0.064,3.323 2.819,6.028 6.142,6.028 a 6.156,6.156 0 0 0 6.15,-6.15 6.157,6.157 0 0 0 -6.156,-6.149 l -0.649,0.047 0.004,0.094 c 0.022,0.384 0.091,0.754 0.206,1.104 l 0.023,0.07 0.422,-0.027 a 4.867,4.867 0 0 1 4.861,4.861 4.866,4.866 0 0 1 -4.861,4.862 4.824,4.824 0 0 1 -4.836,-4.429 l -0.006,-0.07 -0.07,-0.013 a 6.524,6.524 0 0 1 -1.102,-0.321 l -0.133,-0.049 z m 6.493,-9.134 0.043,0.06 c 0.464,0.688 0.735,1.453 0.807,2.278 l 0.007,0.072 0.069,0.014 c 0.361,0.07 0.721,0.175 1.101,0.318 l 0.129,0.052 -0.001,-0.144 A 6.087,6.087 0 0 0 -5.439,42.026 L -5.492,41.949 -5.57,42 a 4.333,4.333 0 0 0 -0.846,0.745 z m 6.01,6.861 c 0.121,0.35 0.213,0.727 0.273,1.118 l 0.022,0.138 0.121,-0.072 a 6.187,6.187 0 0 0 3.004,-5.28 c 0,-3.391 -2.76,-6.15 -6.152,-6.15 a 6.156,6.156 0 0 0 -6.149,6.15 c 0,1.28 0.393,2.51 1.136,3.551 l 0.052,0.077 0.077,-0.051 c 0.311,-0.206 0.597,-0.456 0.848,-0.745 l 0.049,-0.056 -0.043,-0.06 a 4.846,4.846 0 0 1 -0.832,-2.716 4.867,4.867 0 0 1 4.862,-4.861 4.867,4.867 0 0 1 4.863,4.861 c 0,1.61 -0.764,3.061 -2.094,3.985 l -0.059,0.041 z M 9.41,23.114 V 61.565 H -53.232 V 23.083 a 4.945,4.945 0 0 1 -0.005,-0.295 c 0,-1.814 0.394,-11.429 8.124,-23.606 8.444,-13.325 22.377,-17.444 22.965,-17.614 l 0.211,-0.06 0.21,0.06 c 0.591,0.17 14.569,4.287 23.018,17.614 8.424,13.275 8.133,23.503 8.119,23.932"
     clip-path="url(#d)"
     style="fill-opacity:1;fill-rule:nonzero;stroke:none"
     transform="matrix(0.73757,0,0,-0.73757,39.266,46.36)"
     id="path55" /><path
     d="m 0,0 c -0.109,-0.255 -0.437,-0.385 -0.73,-0.291 -0.015,0.008 -1.366,0.553 -2.568,0.553 -1.327,0 -2.884,-0.275 -2.9,-0.279 -0.302,-0.08 -0.62,0.065 -0.714,0.324 -0.092,0.262 0.076,0.537 0.377,0.619 0.07,0.018 1.732,0.324 3.237,0.324 1.414,0 2.901,-0.593 2.966,-0.615 C -0.037,0.537 0.11,0.254 0,0 m 0,-2.435 c -0.109,-0.255 -0.437,-0.385 -0.73,-0.29 -0.015,0.005 -1.366,0.552 -2.568,0.552 -1.327,0 -2.884,-0.276 -2.9,-0.279 -0.302,-0.08 -0.62,0.065 -0.714,0.326 -0.092,0.26 0.076,0.537 0.377,0.617 0.07,0.017 1.732,0.322 3.237,0.322 1.414,0 2.901,-0.591 2.966,-0.612 C -0.037,-1.896 0.11,-2.18 0,-2.435 m 0,-2.437 c -0.109,-0.254 -0.437,-0.382 -0.73,-0.288 -0.015,0.005 -1.366,0.553 -2.568,0.553 -1.327,0 -2.884,-0.277 -2.9,-0.28 -0.302,-0.08 -0.62,0.063 -0.714,0.325 -0.092,0.26 0.076,0.537 0.377,0.619 0.07,0.018 1.732,0.323 3.237,0.323 1.414,0 2.901,-0.595 2.966,-0.618 C -0.037,-4.331 0.11,-4.614 0,-4.872 m 0,-2.434 c -0.109,-0.256 -0.437,-0.383 -0.73,-0.289 -0.015,0.004 -1.366,0.553 -2.568,0.553 -1.327,0 -2.884,-0.276 -2.9,-0.282 -0.302,-0.08 -0.62,0.065 -0.714,0.327 -0.092,0.259 0.076,0.535 0.377,0.618 0.07,0.018 1.732,0.323 3.237,0.323 1.414,0 2.901,-0.595 2.966,-0.615 C -0.037,-6.767 0.11,-7.052 0,-7.306 M -3.633,2.97 A 36.18,36.18 0 0 1 -8.845,2.57 V -9.689 c 0.814,0.139 2.567,0.383 4.909,0.383 2.099,0 4.198,-0.481 5.432,-0.861 V 1.977 C 0.531,2.34 -1.459,2.97 -3.633,2.97"
     clip-path="url(#e)"
     style="fill-opacity:1;fill-rule:nonzero;stroke:none"
     transform="matrix(0.73757,0,0,-0.73757,11.924,6.725)"
     id="path56" /><path
     d="m 0,0 c -0.094,-0.259 -0.412,-0.404 -0.712,-0.324 -0.016,0.004 -1.573,0.279 -2.899,0.279 -1.204,0 -2.554,-0.545 -2.57,-0.553 -0.293,-0.094 -0.62,0.036 -0.73,0.291 -0.111,0.254 0.038,0.537 0.33,0.635 0.066,0.022 1.555,0.615 2.97,0.615 1.503,0 3.167,-0.306 3.236,-0.324 C -0.075,0.537 0.093,0.262 0,0 m 0,-2.433 c -0.094,-0.261 -0.412,-0.406 -0.712,-0.326 -0.016,0.003 -1.573,0.279 -2.899,0.279 -1.204,0 -2.554,-0.547 -2.57,-0.552 -0.293,-0.095 -0.62,0.035 -0.73,0.29 -0.111,0.255 0.038,0.538 0.33,0.636 0.066,0.021 1.555,0.612 2.97,0.612 1.503,0 3.167,-0.305 3.236,-0.322 0.3,-0.08 0.468,-0.357 0.375,-0.617 m 0,-2.436 c -0.094,-0.262 -0.412,-0.405 -0.712,-0.325 -0.016,0.003 -1.573,0.279 -2.899,0.279 -1.204,0 -2.554,-0.547 -2.57,-0.552 -0.293,-0.094 -0.62,0.033 -0.73,0.288 -0.111,0.258 0.038,0.541 0.33,0.634 0.066,0.023 1.555,0.618 2.97,0.618 1.503,0 3.167,-0.305 3.236,-0.323 0.3,-0.082 0.468,-0.359 0.375,-0.619 m 0,-2.435 c -0.094,-0.262 -0.412,-0.407 -0.712,-0.327 -0.016,0.006 -1.573,0.282 -2.899,0.282 -1.204,0 -2.554,-0.549 -2.57,-0.553 -0.293,-0.095 -0.62,0.033 -0.73,0.289 -0.111,0.254 0.038,0.539 0.33,0.635 0.066,0.02 1.555,0.615 2.97,0.615 1.503,0 3.167,-0.305 3.236,-0.323 0.3,-0.084 0.468,-0.359 0.375,-0.618 m -3.324,9.967 c -2.203,0 -4.217,-0.647 -5.168,-1.007 v -12.143 c 1.228,0.383 3.349,0.874 5.471,0.874 2.341,0 4.094,-0.244 4.909,-0.383 V 2.263 c -0.779,0.119 -2.857,0.4 -5.212,0.4"
     clip-path="url(#f)"
     style="fill-opacity:1;fill-rule:nonzero;stroke:none"
     transform="matrix(0.73757,0,0,-0.73757,19.88,6.499)"
     id="path57" /><g
     id="g102"
     transform="matrix(1.7837451,0,0,1.7837451,-123.85838,-44.500523)"><path
       d="m 0,0 h 2.471 v -15.068 h 7.214 v -2.174 H 0 Z"
       clip-path="url(#j)"
       style="fill-opacity:1;fill-rule:nonzero;stroke:none"
       transform="matrix(0.73757,0,0,-0.73757,158.034,35.206)"
       id="path61" /><path
       d="m 495.873,286.553 h 2.321 v -12.599 h -2.321 z m 2.47,2.815 h -2.618 v 2.619 h 2.618 z"
       clip-path="url(#k)"
       style="fill-opacity:1;fill-rule:nonzero;stroke:none"
       transform="matrix(0.73757,0,0,-0.73757,-198.738,249.985)"
       id="path62" /><path
       d="m 0,0 c -2.521,0 -3.73,-2.396 -3.73,-4.743 0,-2.101 1.085,-4.695 3.705,-4.695 2.495,0 3.533,2.792 3.483,4.769 C 3.508,-2.396 2.52,0 0,0 m -6.053,7.51 h 2.323 v -7.658 h 0.048 c 0.717,1.161 1.977,2.025 4.176,2.025 3.656,0 5.434,-2.988 5.434,-6.373 0,-3.459 -1.606,-6.818 -5.41,-6.818 -2.248,0 -3.68,1.136 -4.298,2.075 h -0.05 v -1.779 h -2.223 z"
       clip-path="url(#l)"
       style="fill-opacity:1;fill-rule:nonzero;stroke:none"
       transform="matrix(0.73757,0,0,-0.73757,176.011,39.798)"
       id="path63" /><path
       d="M 0,0 H 2.174 V -1.952 H 2.223 C 2.84,-0.643 4.174,0.296 5.508,0.296 6.2,0.296 6.546,0.222 7.04,0.124 v -2.076 c -0.42,0.174 -0.89,0.223 -1.284,0.223 -2.076,0 -3.435,-1.977 -3.435,-5.139 v -5.731 H 0 Z"
       clip-path="url(#m)"
       style="fill-opacity:1;fill-rule:nonzero;stroke:none"
       transform="matrix(0.73757,0,0,-0.73757,182.246,38.631)"
       id="path64" /><path
       d="m 0,0 c -0.494,0 -0.988,0.05 -1.482,0.05 -1.26,0 -4.372,-0.197 -4.372,-2.421 0,-1.334 1.284,-2.051 2.346,-2.051 2.297,0 3.508,1.434 3.508,3.311 z m -6.893,5.707 c 1.163,0.691 2.545,1.186 4.151,1.186 3.607,0 5.064,-1.779 5.064,-5.212 v -5.213 c 0,-1.433 0.049,-2.1 0.1,-2.47 H 0.247 v 1.63 h -0.05 c -0.543,-0.766 -1.778,-1.927 -3.902,-1.927 -2.718,0 -4.62,1.186 -4.62,3.928 0,3.162 3.458,4.15 5.854,4.15 0.914,0 1.557,0 2.471,-0.049 0,2.174 -0.791,3.286 -3.112,3.286 -1.31,0 -2.718,-0.495 -3.657,-1.286 z"
       clip-path="url(#n)"
       style="fill-opacity:1;fill-rule:nonzero;stroke:none"
       transform="matrix(0.73757,0,0,-0.73757,194.426,43.497)"
       id="path65" /><path
       d="m 0,0 h 2.175 v -1.952 h 0.05 c 0.617,1.309 1.951,2.248 3.285,2.248 0.691,0 1.037,-0.074 1.531,-0.172 v -2.076 c -0.42,0.174 -0.889,0.223 -1.284,0.223 -2.075,0 -3.435,-1.977 -3.435,-5.139 v -5.731 H 0 Z"
       clip-path="url(#o)"
       style="fill-opacity:1;fill-rule:nonzero;stroke:none"
       transform="matrix(0.73757,0,0,-0.73757,198.827,38.631)"
       id="path66" /><path
       d="m 548.494,286.553 h 2.322 v -12.599 h -2.322 z m 2.471,2.815 h -2.619 v 2.619 h 2.619 z"
       clip-path="url(#p)"
       style="fill-opacity:1;fill-rule:nonzero;stroke:none"
       transform="matrix(0.73757,0,0,-0.73757,-198.738,249.985)"
       id="path67" /><path
       d="M 0,0 C 0,1.927 -1.136,3.508 -3.137,3.508 -5.41,3.508 -6.348,1.631 -6.521,0 Z m 1.508,-6.992 c -0.89,-0.32 -1.903,-0.815 -3.978,-0.815 -4.471,0 -6.522,2.717 -6.522,6.819 0,3.73 2.347,6.373 5.904,6.373 4.2,0 5.559,-3.063 5.559,-7.114 h -8.992 c 0,-2.496 1.952,-4.201 4.15,-4.201 1.531,0 3.31,0.791 3.879,1.26 z"
       clip-path="url(#q)"
       style="fill-opacity:1;fill-rule:nonzero;stroke:none"
       transform="matrix(0.73757,0,0,-0.73757,216.434,42.385)"
       id="path68" /><path
       d="m 0,0 c 0.914,-0.593 2.223,-0.89 2.891,-0.89 1.062,0 2.371,0.446 2.371,1.804 0,2.298 -5.459,2.101 -5.459,5.633 0,2.618 1.951,3.878 4.446,3.878 1.087,0 1.977,-0.222 2.891,-0.494 L 6.941,7.905 C 6.423,8.227 5.039,8.548 4.496,8.548 3.311,8.548 2.273,8.054 2.273,7.017 c 0,-2.571 5.459,-1.829 5.459,-5.856 0,-2.692 -2.149,-3.928 -4.397,-3.928 -1.186,0 -2.396,0.123 -3.458,0.692 z"
       clip-path="url(#r)"
       style="fill-opacity:1;fill-rule:nonzero;stroke:none"
       transform="matrix(0.73757,0,0,-0.73757,219.888,46.102)"
       id="path69" /></g><path
     d="m 0,0 h 1.618 l 3.67,-6.713 H 5.317 V 0 h 1.19 V -8.336 H 4.989 L 1.204,-1.474 H 1.183 V -8.336 H 0 Z"
     clip-path="url(#s)"
     style="fill-opacity:1;fill-rule:nonzero;stroke:none"
     transform="matrix(0.73757,0,0,-0.73757,52.745,34.886)"
     id="path70" /><path
     d="m 0,0 c 0,-0.909 -0.58,-1.604 -1.69,-1.604 -0.516,0 -1.142,0.353 -1.142,1.001 0,1.063 1.506,1.155 2.12,1.155 0.237,0 0.471,-0.029 0.712,-0.029 z m -3.269,2.349 c 0.452,0.379 1.134,0.606 1.759,0.606 1.131,0 1.51,-0.527 1.51,-1.582 -0.439,0.024 -0.76,0.024 -1.193,0.024 -1.157,0 -2.83,-0.475 -2.83,-2 0,-1.33 0.917,-1.911 2.23,-1.911 1.03,0 1.629,0.565 1.893,0.934 h 0.02 v -0.784 h 1.056 c -0.031,0.177 -0.053,0.492 -0.053,1.191 v 2.519 c 0,1.655 -0.701,2.528 -2.449,2.528 A 3.842,3.842 0 0 1 -3.332,3.301 l 0.063,-0.952"
     clip-path="url(#t)"
     style="fill-opacity:1;fill-rule:nonzero;stroke:none"
     transform="matrix(0.73757,0,0,-0.73757,61.697,39.29)"
     id="path71" /><path
     d="m 0,0 h -1.621 v -3.33 c 0,-0.709 0.423,-1.095 0.946,-1.095 0.354,0 0.592,0.115 0.761,0.223 v -0.966 a 3.274,3.274 0 0 0 -0.953,-0.166 c -1.153,0 -1.875,0.551 -1.875,1.771 V 0 h -1.373 v 0.904 h 1.373 v 1.414 l 1.121,0.359 V 0.904 H 0 V 0"
     clip-path="url(#u)"
     style="fill-opacity:1;fill-rule:nonzero;stroke:none"
     transform="matrix(0.73757,0,0,-0.73757,66.319,37.209)"
     id="path72" /><path
     d="m 360.913,283.295 h 1.121 v 6.089 h -1.121 z m -0.07,7.449 h 1.262 v 1.268 h -1.262 z"
     clip-path="url(#v)"
     style="fill-opacity:1;fill-rule:nonzero;stroke:none"
     transform="matrix(0.73757,0,0,-0.73757,-198.738,249.985)"
     id="path73" /><path
     d="M 0,0 C 0,1.162 0.713,2.28 1.914,2.28 3.11,2.28 3.818,1.162 3.818,0 3.818,-1.081 3.232,-2.279 1.914,-2.279 0.595,-2.279 0,-1.081 0,0 m -1.186,0 c 0,-1.742 1.263,-3.188 3.1,-3.188 1.83,0 3.102,1.446 3.102,3.188 0,1.854 -1.252,3.199 -3.102,3.199 -1.863,0 -3.1,-1.345 -3.1,-3.199"
     clip-path="url(#w)"
     style="fill-opacity:1;fill-rule:nonzero;stroke:none"
     transform="matrix(0.73757,0,0,-0.73757,70.381,38.791)"
     id="path74" /><path
     d="m 0,0 h 1.089 v -0.969 h 0.02 c 0.337,0.699 1.148,1.12 1.99,1.12 1.58,0 2.293,-0.988 2.293,-2.621 V -6.087 H 4.261 v 3.156 c 0,1.412 -0.301,2.103 -1.291,2.163 -1.272,0 -1.849,-1.018 -1.849,-2.506 V -6.087 H 0 V 0"
     clip-path="url(#x)"
     style="fill-opacity:1;fill-rule:nonzero;stroke:none"
     transform="matrix(0.73757,0,0,-0.73757,75.187,36.543)"
     id="path75" /><path
     d="m 0,0 c 0,-0.909 -0.588,-1.604 -1.695,-1.604 -0.52,0 -1.139,0.353 -1.139,1.001 0,1.063 1.504,1.155 2.105,1.155 0.249,0 0.49,-0.029 0.729,-0.029 z M -3.275,2.349 C -2.83,2.728 -2.139,2.955 -1.516,2.955 -0.393,2.955 0,2.428 0,1.373 c -0.445,0.024 -0.752,0.024 -1.201,0.024 -1.16,0 -2.834,-0.475 -2.834,-2 0,-1.33 0.931,-1.911 2.235,-1.911 1.038,0 1.628,0.565 1.894,0.934 H 0.11 v -0.784 h 1.058 c -0.026,0.177 -0.053,0.492 -0.053,1.191 v 2.519 c 0,1.655 -0.698,2.528 -2.445,2.528 A 3.853,3.853 0 0 1 -3.336,3.301 l 0.061,-0.952"
     clip-path="url(#y)"
     style="fill-opacity:1;fill-rule:nonzero;stroke:none"
     transform="matrix(0.73757,0,0,-0.73757,83.24,39.29)"
     id="path76" /><path
     d="m 385.466,292.255 h 1.121 v -8.96 h -1.121 z"
     clip-path="url(#z)"
     style="fill-opacity:1;fill-rule:nonzero;stroke:none"
     transform="matrix(0.73757,0,0,-0.73757,-198.738,249.985)"
     id="path77" /><path
     d="m 0,0 c 0,-2.34 -1.18,-3.604 -3.238,-3.604 -2.055,0 -3.238,1.264 -3.238,3.604 v 4.88 h 1.195 V 0.151 c 0,-1.601 0.506,-2.7 2.043,-2.7 1.541,0 2.045,1.099 2.045,2.7 V 4.88 H 0 V 0"
     clip-path="url(#A)"
     style="fill-opacity:1;fill-rule:nonzero;stroke:none"
     transform="matrix(0.73757,0,0,-0.73757,94.983,38.486)"
     id="path78" /><path
     d="m 0,0 h 1.096 v -0.969 h 0.017 c 0.334,0.699 1.153,1.12 1.994,1.12 1.579,0 2.284,-0.988 2.284,-2.621 V -6.087 H 4.267 v 3.156 c 0,1.412 -0.31,2.103 -1.285,2.163 -1.277,0 -1.857,-1.018 -1.857,-2.506 V -6.087 H 0 V 0"
     clip-path="url(#B)"
     style="fill-opacity:1;fill-rule:nonzero;stroke:none"
     transform="matrix(0.73757,0,0,-0.73757,96.477,36.543)"
     id="path79" /><path
     d="m 407.698,289.386 h 1.123 v -6.089 h -1.123 z m -0.068,2.626 h 1.269 v -1.268 h -1.269 z"
     clip-path="url(#C)"
     style="fill-opacity:1;fill-rule:nonzero;stroke:none"
     transform="matrix(0.73757,0,0,-0.73757,-198.738,249.985)"
     id="path80" /><path
     d="m 0,0 h -1.334 l -2.182,6.087 h 1.231 l 1.644,-4.974 h 0.019 l 1.684,4.974 h 1.129 z"
     clip-path="url(#D)"
     style="fill-opacity:1;fill-rule:nonzero;stroke:none"
     transform="matrix(0.73757,0,0,-0.73757,106.3,41.033)"
     id="path81" /><path
     d="M 0,0 C 0.088,0.782 0.541,1.687 1.646,1.687 2.609,1.687 3.158,0.921 3.158,0 Z M 3.887,-2.256 C 3.611,-2.487 2.748,-2.873 2.015,-2.873 A 2.005,2.005 0 0 0 0,-0.839 h 4.357 c 0,1.966 -0.662,3.444 -2.685,3.444 -1.732,0 -2.867,-1.277 -2.867,-3.084 0,-1.99 0.996,-3.305 3.162,-3.305 1.004,0 1.488,0.247 1.92,0.395 v 1.133"
     clip-path="url(#E)"
     style="fill-opacity:1;fill-rule:nonzero;stroke:none"
     transform="matrix(0.73757,0,0,-0.73757,109.295,38.353)"
     id="path82" /><path
     d="m 0,0 h 1.048 v -0.941 h 0.03 c 0.301,0.633 0.947,1.092 1.588,1.092 0.324,0 0.504,-0.04 0.738,-0.093 v -0.999 c -0.196,0.086 -0.428,0.104 -0.613,0.104 -1.013,0 -1.67,-0.949 -1.67,-2.49 v -2.76 H 0 V 0"
     clip-path="url(#F)"
     style="fill-opacity:1;fill-rule:nonzero;stroke:none"
     transform="matrix(0.73757,0,0,-0.73757,113.615,36.543)"
     id="path83" /><path
     d="m 0,0 c 0.436,-0.287 1.066,-0.434 1.395,-0.434 0.502,0 1.147,0.224 1.147,0.875 0,1.115 -2.64,1.012 -2.64,2.723 0,1.263 0.942,1.88 2.139,1.88 0.533,0 0.963,-0.116 1.41,-0.233 L 3.346,3.82 c -0.25,0.158 -0.907,0.307 -1.18,0.307 -0.57,0 -1.073,-0.229 -1.073,-0.732 0,-1.24 2.636,-0.892 2.636,-2.829 0,-1.306 -1.03,-1.911 -2.129,-1.911 -0.567,0 -1.147,0.07 -1.671,0.329 L 0,0"
     clip-path="url(#G)"
     style="fill-opacity:1;fill-rule:nonzero;stroke:none"
     transform="matrix(0.73757,0,0,-0.73757,116.711,40.153)"
     id="path84" /><path
     d="m 432.933,289.386 h 1.117 v -6.089 h -1.117 z m -0.081,2.626 h 1.263 v -1.268 h -1.263 z"
     clip-path="url(#H)"
     style="fill-opacity:1;fill-rule:nonzero;stroke:none"
     transform="matrix(0.73757,0,0,-0.73757,-198.738,249.985)"
     id="path85" /><path
     d="m 0,0 h -1.605 v -3.33 c 0,-0.709 0.421,-1.095 0.949,-1.095 0.342,0 0.592,0.115 0.763,0.223 v -0.966 a 3.327,3.327 0 0 0 -0.956,-0.166 c -1.165,0 -1.882,0.551 -1.882,1.771 V 0 h -1.365 v 0.904 h 1.365 v 1.414 l 1.126,0.359 V 0.904 H 0 V 0"
     clip-path="url(#I)"
     style="fill-opacity:1;fill-rule:nonzero;stroke:none"
     transform="matrix(0.73757,0,0,-0.73757,125.3,37.209)"
     id="path86" /><path
     d="m 0,0 c 0.141,-0.045 0.326,-0.09 0.523,-0.09 0.998,0 1.346,1.383 1.346,1.502 0,0.136 -0.154,0.441 -0.228,0.645 L -0.427,7.74 H 0.809 L 2.445,2.696 H 2.467 L 4.133,7.74 H 5.267 L 3.023,1.518 C 2.617,0.356 2.162,-0.999 0.689,-0.999 c -0.363,0 -0.566,0.051 -0.772,0.084 L 0,0"
     clip-path="url(#J)"
     style="fill-opacity:1;fill-rule:nonzero;stroke:none"
     transform="matrix(0.73757,0,0,-0.73757,126.014,42.252)"
     id="path87" /><path
     d="M 0,0 C 0,1.159 0.694,2.289 1.905,2.289 3.102,2.289 3.8,1.159 3.8,0 3.8,-1.089 3.224,-2.288 1.905,-2.288 0.582,-2.288 0,-1.089 0,0 m -1.202,0 c 0,-1.745 1.265,-3.19 3.107,-3.19 1.824,0 3.088,1.445 3.088,3.19 0,1.856 -1.23,3.19 -3.088,3.19 C 0.044,3.19 -1.202,1.856 -1.202,0"
     clip-path="url(#K)"
     style="fill-opacity:1;fill-rule:nonzero;stroke:none"
     transform="matrix(0.73757,0,0,-0.73757,53.255,49.2)"
     id="path88" /><path
     d="M 0,0 H -1.43 V 0.914 H 0 v 0.563 c 0,1.475 0.385,2.447 2.043,2.447 0.281,0 0.52,-0.039 0.75,-0.068 L 2.745,2.952 C 2.613,2.992 2.401,3.021 2.204,3.021 1.236,3.021 1.121,2.4 1.121,1.568 V 0.914 H 2.733 V 0 H 1.121 V -5.179 H 0 V 0"
     clip-path="url(#L)"
     style="fill-opacity:1;fill-rule:nonzero;stroke:none"
     transform="matrix(0.73757,0,0,-0.73757,58.59,47.626)"
     id="path89" /><path
     d="m 0,0 c -0.612,0.233 -0.943,0.348 -1.576,0.348 -0.661,0 -1.44,-0.237 -1.44,-1.111 0,-1.602 3.573,-1.235 3.573,-3.981 0,-1.772 -1.369,-2.484 -3.047,-2.484 -0.579,0 -1.152,0.165 -1.704,0.345 l 0.12,1.112 c 0.4,-0.165 1.124,-0.408 1.732,-0.408 0.68,0 1.638,0.389 1.638,1.363 0,1.872 -3.587,1.341 -3.587,3.944 0,1.484 1.17,2.273 2.673,2.273 A 5.75,5.75 0 0 0 0.163,1.102 L 0,0"
     clip-path="url(#M)"
     style="fill-opacity:1;fill-rule:nonzero;stroke:none"
     transform="matrix(0.73757,0,0,-0.73757,66.556,46.222)"
     id="path90" /><path
     d="m 361.906,275.271 h 1.118 v -6.093 h -1.118 z m -0.071,2.622 h 1.269 v -1.264 h -1.269 z"
     clip-path="url(#N)"
     style="fill-opacity:1;fill-rule:nonzero;stroke:none"
     transform="matrix(0.73757,0,0,-0.73757,-198.738,249.985)"
     id="path91" /><path
     d="m 0,0 h 1.082 v -0.968 h 0.029 c 0.326,0.685 1.148,1.112 1.977,1.112 1.59,0 2.301,-0.978 2.301,-2.628 V -6.093 H 4.255 v 3.148 c 0,1.424 -0.311,2.115 -1.288,2.187 -1.278,0 -1.85,-1.029 -1.85,-2.515 v -2.82 H 0 V 0"
     clip-path="url(#O)"
     style="fill-opacity:1;fill-rule:nonzero;stroke:none"
     transform="matrix(0.73757,0,0,-0.73757,70.54,46.952)"
     id="path92" /><path
     d="m 0,0 c -1.051,0 -1.691,1.008 -1.691,2.16 0,1.039 0.56,2.269 1.691,2.269 1.196,0 1.775,-1.088 1.775,-2.361 C 1.775,0.931 1.047,0 0,0 M 2.901,5.188 H 1.865 V 4.274 H 1.841 C 1.508,4.933 0.912,5.332 -0.17,5.332 c -1.836,0 -2.717,-1.678 -2.717,-3.246 0,-1.564 0.86,-2.99 2.604,-2.99 0.777,0 1.56,0.308 2.034,0.951 h 0.024 v -0.609 c 0,-1.281 -0.697,-2.082 -1.88,-2.082 -0.823,0 -1.34,0.163 -2.206,0.541 l -0.115,-1.028 c 0.981,-0.345 1.541,-0.431 2.19,-0.431 2.181,0 3.137,1.081 3.137,2.919 v 5.831"
     clip-path="url(#P)"
     style="fill-opacity:1;fill-rule:nonzero;stroke:none"
     transform="matrix(0.73757,0,0,-0.73757,77.751,50.779)"
     id="path93" /><path
     d="m 0,0 c 0,-0.907 -0.59,-1.608 -1.697,-1.608 -0.522,0 -1.135,0.35 -1.135,0.994 0,1.075 1.5,1.176 2.108,1.176 0.248,0 0.482,-0.024 0.724,-0.024 z m -3.27,2.344 a 2.902,2.902 0 0 0 1.764,0.625 C -0.385,2.969 0,2.421 0,1.372 c -0.439,0.025 -0.754,0.025 -1.198,0.025 -1.161,0 -2.833,-0.48 -2.833,-2.011 0,-1.323 0.922,-1.897 2.242,-1.897 1.016,0 1.617,0.567 1.887,0.936 h 0.017 v -0.791 h 1.047 c -0.021,0.184 -0.043,0.502 -0.043,1.201 v 2.518 c 0,1.662 -0.711,2.516 -2.451,2.516 A 3.88,3.88 0 0 1 -3.335,3.299 L -3.27,2.344"
     clip-path="url(#Q)"
     style="fill-opacity:1;fill-rule:nonzero;stroke:none"
     transform="matrix(0.73757,0,0,-0.73757,83.973,49.7)"
     id="path94" /><path
     d="m 0,0 c 0.016,-0.96 -0.484,-2.313 -1.693,-2.313 -1.258,0 -1.787,1.258 -1.787,2.273 0,1.137 0.587,2.303 1.8,2.303 C -0.461,2.263 0.016,1.097 0,0 m -4.602,-5.575 h 1.122 v 3.344 h 0.018 c 0.353,-0.56 0.954,-0.982 2.04,-0.982 1.828,0 2.609,1.623 2.609,3.29 0,1.642 -0.865,3.089 -2.621,3.089 -1.084,0 -1.771,-0.556 -2.07,-1.004 h -0.021 v 0.86 h -1.077 v -8.597"
     clip-path="url(#R)"
     style="fill-opacity:1;fill-rule:nonzero;stroke:none"
     transform="matrix(0.73757,0,0,-0.73757,89.595,49.181)"
     id="path95" /><path
     d="M 0,0 C 0,1.159 0.701,2.289 1.906,2.289 3.104,2.289 3.809,1.159 3.809,0 3.809,-1.089 3.225,-2.288 1.906,-2.288 0.582,-2.288 0,-1.089 0,0 m -1.193,0 c 0,-1.745 1.259,-3.19 3.099,-3.19 1.834,0 3.093,1.445 3.093,3.19 0,1.856 -1.235,3.19 -3.093,3.19 C 0.043,3.19 -1.193,1.856 -1.193,0"
     clip-path="url(#S)"
     style="fill-opacity:1;fill-rule:nonzero;stroke:none"
     transform="matrix(0.73757,0,0,-0.73757,92.165,49.2)"
     id="path96" /><path
     d="m 0,0 h 1.05 v -0.955 h 0.029 c 0.303,0.647 0.936,1.099 1.592,1.099 0.33,0 0.502,-0.041 0.747,-0.079 v -1.02 a 1.607,1.607 0 0 1 -0.633,0.121 c -1.007,0 -1.66,-0.953 -1.66,-2.489 v -2.77 H 0 V 0"
     clip-path="url(#T)"
     style="fill-opacity:1;fill-rule:nonzero;stroke:none"
     transform="matrix(0.73757,0,0,-0.73757,96.963,46.952)"
     id="path97" /><path
     d="M 0,0 C 0.082,0.775 0.547,1.695 1.631,1.695 2.604,1.695 3.158,0.919 3.158,0 Z M 3.891,-2.267 C 3.613,-2.492 2.744,-2.882 2.006,-2.882 A 2.006,2.006 0 0 0 0,-0.842 h 4.346 c 0,1.958 -0.656,3.439 -2.695,3.439 -1.708,0 -2.844,-1.285 -2.844,-3.089 0,-1.975 0.996,-3.292 3.155,-3.292 0.999,0 1.495,0.234 1.929,0.396 v 1.121"
     clip-path="url(#U)"
     style="fill-opacity:1;fill-rule:nonzero;stroke:none"
     transform="matrix(0.73757,0,0,-0.73757,100.973,48.761)"
     id="path98" /><path
     d="m 0,0 c 2.282,-2.109 6.788,-4.032 12.305,-4.118 4.819,-0.081 8.698,1.369 8.944,5.376 0.517,8.663 -21.692,5.194 -20.827,19.812 0.424,7.315 7.695,9.738 15.517,9.604 4.244,-0.07 8.471,-1.074 10.799,-2.254 l 0.004,-5.196 C 23.908,25.167 19.965,26.399 16.701,26.462 11.732,26.55 7.777,25.638 7.711,22.009 7.586,14.426 29.986,16.245 29.127,1.745 28.653,-6.414 20.711,-8.917 12.408,-8.771 7.631,-8.696 2.961,-7.731 0.008,-6.225 L 0,0"
     clip-path="url(#V)"
     style="fill-opacity:1;fill-rule:nonzero;stroke:none"
     transform="matrix(0.73757,0,0,-0.73757,109.687,22.628)"
     id="path99" /><path
     d="m 0,0 c -10.317,0 -16.252,4.631 -16.252,14.162 v 24.194 h 7.728 V 14.162 c 0,-5.92 2.843,-9.517 8.524,-9.517 5.666,0 8.514,3.597 8.514,9.517 l 0.004,24.194 h 7.736 V 14.162 C 16.254,4.631 10.313,0 0,0"
     clip-path="url(#W)"
     style="fill-opacity:1;fill-rule:nonzero;stroke:none"
     transform="matrix(0.73757,0,0,-0.73757,94.192,29.127)"
     id="path100" /><path
     d="m 0,0 v -27.247 l -17.725,25.32 A 4.643,4.643 0 0 1 -21.494,0 h -5.863 v -37.161 h 5.156 V -9.89 l 17.696,-25.242 a 4.652,4.652 0 0 1 3.831,-2.029 H 5.152 V 0 H 0"
     clip-path="url(#X)"
     style="fill-opacity:1;fill-rule:nonzero;stroke:none"
     transform="matrix(0.73757,0,0,-0.73757,72.932,0.837)"
     id="path101" /><path
     d="m 464.981,337.983 h 1.121 v -80.152 h -1.121 z"
     clip-path="url(#Y)"
     style="fill-opacity:1;fill-rule:nonzero;stroke:none"
     transform="matrix(0.73757,0,0,-0.73757,-198.738,249.985)"
     id="path102" /></svg>
